<?xml version="1.0" encoding="UTF-8"?>
<svg width="40px" height="40px" viewBox="0 0 40 40" version="1.1" xmlns="http://www.w3.org/2000/svg" xmlns:xlink="http://www.w3.org/1999/xlink">
    <!-- Generator: Sketch 62 (91390) - https://sketch.com -->
    <title>Clima_40x40</title>
    <desc>Created with Sketch.</desc>
    <defs>
        <path d="M6.83747647,25.6092529 C4.37442353,25.6092529 2.06318824,24.9446647 0.0743647059,23.7857118 C1.05247059,24.0037412 2.06911765,24.1194882 3.11294118,24.1194882 C10.8282176,24.1194882 17.0826353,17.8649471 17.0826353,10.1496706 C17.0826353,6.16473529 15.4143706,2.56990588 12.7377353,0.0248294118 C17.2179,2.21624118 20.3107059,6.82178824 20.3107059,12.1360235 C20.3107059,19.5652059 14.2665353,25.6092529 6.83747647,25.6092529 L6.83747647,25.6092529 Z" id="path-1"></path>
    </defs>
    <g id="Clima_40x40" stroke="none" stroke-width="1" fill="none" fill-rule="evenodd">
        <g id="Sol" transform="translate(-1.000000, 0.000000)">
            <g id="shutterstock_1267576039" transform="translate(0.000000, -0.000000)">
                <path d="M39.4083529,19.6714412 C36.6143647,22.5976059 35.8320529,25.3410706 36.8853882,29.1009353 C33.0543706,30.1429059 31.0207059,32.1764471 29.9788588,36.0074647 C26.2188706,34.9542529 23.4754059,35.7365647 20.5492412,38.5305529 C17.6227059,35.7365647 14.8789941,34.9541294 11.1187588,36.0069706 C10.0770353,32.1759529 8.04361765,30.1422882 4.2126,29.1000706 C5.26618235,25.3404529 4.48399412,22.5973588 1.69012941,19.6714412 C4.48399412,16.7452765 5.26630588,14.0018118 4.21309412,10.2418235 C8.04411176,9.19997647 10.0776529,7.16631176 11.1196235,3.33541765 C14.8796118,4.38850588 17.6229529,3.60619412 20.5492412,0.812329412 C23.4756529,3.60619412 26.2193647,4.38875294 29.9796,3.33578824 C31.0219412,7.16717647 33.0558529,9.20158235 36.8869941,10.2447882 C35.8325471,14.0037882 36.6143647,16.7462647 39.4083529,19.6714412" id="Fill-19" fill="#DFB95C"></path>
                <path d="M14.0782765,35.0654294 C16.4142176,35.0654294 18.4644353,35.9660824 20.5492412,37.8526235 C23.3757176,35.2949471 26.1398118,34.5495706 29.6359412,35.4041471 C30.7171941,31.8610765 32.739,29.8391471 36.2820706,28.7581412 C35.4271235,25.2612706 36.1725,22.4976706 38.7301765,19.6714412 C36.1722529,16.8462 35.4276176,14.0834647 36.2835529,10.5874588 C32.7404824,9.50509412 30.7181824,7.48242353 29.6366824,3.93910588 C26.1400588,4.7943 23.3759647,4.04830588 20.5492412,1.49038235 C17.7231353,4.04830588 14.9595353,4.79355882 11.4622941,3.93873529 C10.3814118,7.48168235 8.35960588,9.50361176 4.81653529,10.5847412 C5.67123529,14.0814882 4.92598235,16.8450882 2.36818235,19.6713176 C4.92598235,22.4974235 5.67111176,25.2607765 4.81591765,28.7571529 C8.35911176,29.8386529 10.3807941,31.8605824 11.4616765,35.4037765 C12.3796235,35.1794471 13.2470471,35.0654294 14.0782765,35.0654294 M20.5492412,39.0271412 C20.4257118,39.0271412 20.3024294,38.9813118 20.2063235,38.8896529 C17.3807118,36.1922647 14.7864706,35.4959294 11.2526647,36.4851529 C11.1250588,36.5209765 10.9886824,36.5044235 10.8736765,36.4388294 C10.7585471,36.3736059 10.6743,36.2650235 10.6395882,36.1372941 C9.64394118,32.4753882 7.74405882,30.5752588 4.08227647,29.5791176 C3.95442353,29.5444059 3.84596471,29.4600353 3.78061765,29.3449059 C3.71539412,29.2299 3.69859412,29.0935235 3.73441765,28.9657941 C4.72450588,25.4327294 4.02829412,22.8391059 1.33090588,20.0142353 C1.14758824,19.8223941 1.14758824,19.5202412 1.33090588,19.3284 C4.02829412,16.5034059 4.72475294,13.9096588 3.73503529,10.3758529 C3.69921176,10.2483706 3.71601176,10.1118706 3.78123529,9.99686471 C3.84658235,9.88173529 3.95516471,9.79748824 4.08289412,9.76277647 C7.74467647,8.76675882 9.64455882,6.86675294 10.6403294,3.20497059 C10.6750412,3.07736471 10.7592882,2.96865882 10.8745412,2.90331176 C10.9897941,2.83808824 11.1261706,2.82128824 11.2535294,2.85711176 C14.7872118,3.84732353 17.3812059,3.15037059 20.2063235,0.453229412 C20.3979176,0.269911765 20.7000706,0.270035294 20.8921588,0.453105882 C23.7177706,3.15061765 26.3115176,3.84732353 29.8456941,2.85760588 C29.9728059,2.82178235 30.1095529,2.83870588 30.2246824,2.90380588 C30.3395647,2.96915294 30.4240588,3.07773529 30.4586471,3.20546471 C31.4550353,6.86774118 33.3552882,8.76824118 37.0175647,9.76561765 C37.1452941,9.80045294 37.2537529,9.8847 37.3191,9.99995294 C37.3844471,10.1150824 37.4008765,10.2514588 37.3651765,10.3789412 C36.3742235,13.9117588 37.0701882,16.5045176 39.7675765,19.3284 C39.9507706,19.5202412 39.9507706,19.8222706 39.7675765,20.0142353 C37.0701882,22.8393529 36.3734824,25.4332235 37.3635706,28.9670294 C37.3992706,29.0943882 37.3827176,29.2308882 37.3172471,29.3460176 C37.2520235,29.4610235 37.1434412,29.5453941 37.0155882,29.5801059 C33.3539294,30.5758765 31.4540471,32.4760059 30.4579059,36.1377882 C30.4233176,36.2655176 30.3389471,36.3741 30.2239412,36.4393235 C30.1088118,36.5051647 29.9723118,36.5218412 29.8449529,36.4856471 C26.3100353,35.4956824 23.7175235,36.1925118 20.8921588,38.8896529 C20.7964235,38.9813118 20.6726471,39.0271412 20.5492412,39.0271412" id="Fill-20" fill="#0A0B09"></path>
                <path d="M6.57954706,19.6714412 C6.57954706,11.9561647 12.8339647,5.70174706 20.5492412,5.70174706 C28.2645176,5.70174706 34.5189353,11.9561647 34.5189353,19.6714412 C34.5189353,27.3865941 28.2645176,33.6411353 20.5492412,33.6411353 C12.8339647,33.6411353 6.57954706,27.3865941 6.57954706,19.6714412" id="Fill-21" fill="#FAD67C"></path>
                <path d="M20.5492412,6.19821176 C13.1200588,6.19821176 7.07613529,12.2422588 7.07613529,19.6713176 C7.07613529,27.1005 13.1200588,33.1445471 20.5492412,33.1445471 C27.9783,33.1445471 34.0224706,27.1005 34.0224706,19.6713176 C34.0224706,12.2422588 27.9783,6.19821176 20.5492412,6.19821176 M20.5492412,34.1378471 C12.5724529,34.1378471 6.08295882,27.6482294 6.08295882,19.6713176 C6.08295882,11.6945294 12.5724529,5.20503529 20.5492412,5.20503529 C28.5261529,5.20503529 35.0156471,11.6945294 35.0156471,19.6713176 C35.0156471,27.6482294 28.5261529,34.1378471 20.5492412,34.1378471" id="Fill-22" fill="#0A0B09"></path>
                <g id="Group-25" transform="translate(13.711765, 7.535294)">
                    <mask id="mask-2" fill="white">
                        <use xlink:href="#path-1"></use>
                    </mask>
                    <g id="Clip-24"></g>
                    <polygon id="Fill-23" fill="#F9CB69" mask="url(#mask-2)" points="0.0743647059 25.6092529 20.3107059 25.6092529 20.3107059 0.0248294118 0.0743647059 0.0248294118"></polygon>
                </g>
                <path d="M20.5492412,33.6411353 C17.4134471,33.6411353 14.5189059,32.6079353 12.1876588,30.8633294 C12.7072235,31.0461529 13.2406235,31.1994529 13.7861294,31.3210059 C15.7749529,32.4799588 18.0861882,33.1445471 20.5492412,33.1445471 C27.9783,33.1445471 34.0224706,27.1005 34.0224706,19.6713176 C34.0224706,14.3570824 30.9296647,9.75153529 26.4495,7.56012353 C26.0502529,7.18039412 25.6282765,6.82388824 25.1862882,6.49307647 C30.6215824,8.40568235 34.5189353,13.5821824 34.5189353,19.6714412 C34.5189353,27.3865941 28.2645176,33.6411353 20.5492412,33.6411353" id="Fill-26" fill="#0A0B09"></path>
            </g>
        </g>
    </g>
</svg>