<?xml version="1.0" encoding="UTF-8"?>
<svg width="40px" height="40px" viewBox="0 0 40 40" version="1.1" xmlns="http://www.w3.org/2000/svg" xmlns:xlink="http://www.w3.org/1999/xlink">
    <!-- Generator: Sketch 62 (91390) - https://sketch.com -->
    <title>Icebergs_40x40</title>
    <desc>Created with Sketch.</desc>
    <g id="Icebergs_40x40" stroke="none" stroke-width="1" fill="none" fill-rule="evenodd">
        <g id="CambioClimatico/iceberg">
            <g id="shutterstock_357818519">
                <polyline id="Fill-22" fill="#5CBDC5" points="27.5586667 31.062381 25.6137143 38.1625714 20.9294286 39.4164762 15.6898095 34.6555238 13.0901905 27.5130476 9.33628571 25.1335238 7.35504762 15.611619 32.7847619 15.611619 32.3407619 24.2567619 30.6810476 29.2265714 27.5586667 31.062381"></polyline>
                <polyline id="Fill-23" fill="#65D0D9" points="17.6041905 34.6555238 15.0044762 27.5130476 11.2505714 25.1335238 9.26933333 15.611619 7.35504762 15.611619 9.33628571 25.1335238 13.0901905 27.5130476 15.6898095 34.6555238 20.9294286 39.4164762 22.4080952 39.0207619 17.6041905 34.6555238"></polyline>
                <polyline id="Fill-24" fill="#53AAB2" points="14.1774286 17.5259048 32.6864762 17.5259048 32.7847619 15.611619 7.35504762 15.611619 7.7532381 17.5259048 14.1774286 17.5259048"></polyline>
                <polyline id="Fill-25" fill="#53AAB2" points="30.8704762 15.611619 30.4264762 24.2567619 28.7667619 29.2265714 25.644381 31.062381 23.6994286 38.1625714 20.4938095 39.0207619 20.9294286 39.4164762 25.6137143 38.1625714 27.5586667 31.062381 30.6810476 29.2265714 32.3407619 24.2567619 32.7847619 15.611619 30.8704762 15.611619"></polyline>
                <polyline id="Fill-26" fill="#FFFFFF" points="14.1774286 15.611619 7.35504762 15.611619 9.10647619 10.8278095 13.8559048 8.98809524 15.6898095 4.03771429 20.9294286 1.14514286 24.6260952 11.1454286 24.6260952 15.611619 14.1774286 15.611619"></polyline>
                <polyline id="Fill-27" fill="#C3EDF0" points="32.7847619 11.6644762 32.7847619 15.611619 24.6260952 15.611619 24.6260952 11.1454286 20.9294286 1.14514286 25.6137143 1.90504762 27.5586667 6.22 30.1374286 7.06238095 32.7847619 11.6644762"></polyline>
                <polyline id="Fill-28" fill="#98E0E6" points="30.1374286 7.06238095 27.5586667 6.22 25.6137143 1.90504762 20.9294286 1.14514286 21.0514286 1.47542857 23.6994286 1.90504762 25.644381 6.22 28.2231429 7.06238095 30.8704762 11.6644762 30.8704762 15.611619 32.7847619 15.611619 32.7847619 11.6644762 30.1374286 7.06238095"></polyline>
                <path d="M7.35504762,15.9945714 C7.3112381,15.9945714 7.2667619,15.9869524 7.22342857,15.9711429 C7.02485714,15.8984762 6.9227619,15.6785714 6.99552381,15.48 L8.74704762,10.6962857 C8.78485714,10.5927619 8.86542857,10.5105714 8.96819048,10.4708571 L13.5567619,8.69333333 L15.3308571,3.9047619 C15.3626667,3.81866667 15.4244762,3.74695238 15.5047619,3.70257143 L20.7442857,0.809904762 C20.8194286,0.76847619 20.9061905,0.753428571 20.9906667,0.767238095 L25.6750476,1.52714286 C25.802,1.54771429 25.91,1.63057143 25.9626667,1.74780952 L27.8381905,5.90857143 L30.2562857,6.69838095 C30.3462857,6.72780952 30.4221905,6.78942857 30.4693333,6.87142857 L33.1166667,11.4735238 C33.1500952,11.531619 33.1677143,11.5973333 33.1677143,11.6644762 L33.1677143,15.611619 C33.1677143,15.8230476 32.9961905,15.9945714 32.7847619,15.9945714 C32.5734286,15.9945714 32.402,15.8230476 32.402,15.611619 L32.402,11.7666667 L29.8789524,7.38066667 L27.4398095,6.584 C27.3375238,6.55047619 27.254,6.47542857 27.209619,6.3772381 L25.3491429,2.25009524 L20.9986667,1.54428571 L15.9994286,4.30409524 L14.2149524,9.12104762 C14.1767619,9.22390476 14.0964762,9.30552381 13.9941905,9.34504762 L9.40647619,11.1222857 L7.71447619,15.7432381 C7.65771429,15.898381 7.51114286,15.9945714 7.35504762,15.9945714" id="Fill-29" fill="#000000"></path>
                <path d="M24.6260952,15.9944762 C24.4146667,15.9944762 24.2432381,15.8230476 24.2432381,15.611619 L24.2432381,11.214 L20.5702857,1.27780952 C20.4969524,1.07952381 20.5982857,0.859238095 20.7966667,0.786 C20.9947619,0.712571429 21.2150476,0.814 21.2884762,1.01238095 L24.9852381,11.0127619 C25.0009524,11.0551429 25.0089524,11.1000952 25.0089524,11.1454286 L25.0089524,15.611619 C25.0089524,15.8230476 24.8375238,15.9944762 24.6260952,15.9944762" id="Fill-30" fill="#000000"></path>
                <path d="M14.1775238,15.9945714 C14.140381,15.9945714 14.1025714,15.9891429 14.0650476,15.9777143 C13.8630476,15.915619 13.7494286,15.7014286 13.8114286,15.4992381 L14.6998095,12.6049524 C14.7285714,12.5112381 14.7921905,12.4320952 14.8775238,12.3839048 L16.7420952,11.3310476 C16.9264762,11.2273333 17.16,11.2922857 17.2638095,11.4761905 C17.3677143,11.6602857 17.3028571,11.8938095 17.1186667,11.9979048 L15.3869524,12.975619 L14.5435238,15.724 C14.4928571,15.8886667 14.3412381,15.9945714 14.1775238,15.9945714" id="Fill-31" fill="#000000"></path>
                <path d="M18.5710476,9.29428571 C18.359619,9.29428571 18.1881905,9.12285714 18.1881905,8.91142857 L18.1881905,6.67742857 C18.1881905,6.5852381 18.2214286,6.49609524 18.2819048,6.42647619 L19.5530476,4.96209524 C19.6915238,4.80238095 19.9332381,4.78533333 20.0931429,4.924 C20.2527619,5.06257143 20.2698095,5.30438095 20.1312381,5.46409524 L18.9539048,6.82047619 L18.9539048,8.91142857 C18.9539048,9.12285714 18.7824762,9.29428571 18.5710476,9.29428571" id="Fill-32" fill="#000000"></path>
                <path d="M20.9294286,39.7993333 C20.8353333,39.7993333 20.7433333,39.7644762 20.6719048,39.6999048 L15.4322857,34.9388571 C15.3864762,34.8970476 15.3512381,34.8448571 15.3300952,34.786381 L12.7749524,27.7665714 L9.1312381,25.4569524 C9.04380952,25.4014286 8.98257143,25.3130476 8.96142857,25.2115238 L6.98019048,15.6895238 C6.93704762,15.4825714 7.07,15.2798095 7.27704762,15.2367619 C7.48409524,15.1928571 7.68685714,15.3266667 7.72980952,15.5337143 L9.67809524,24.8968571 L13.2951429,27.1895238 C13.3665714,27.2348571 13.4210476,27.3025714 13.4499048,27.3821905 L16.0172381,34.435619 L21.0321905,38.9926667 L25.3024762,37.8497143 L27.1894286,30.9612381 C27.2159048,30.8649524 27.2786667,30.7829524 27.3646667,30.732381 L30.3634286,28.9691429 L31.9611429,24.1849524 L32.4025714,15.592 C32.4133333,15.3806667 32.5948571,15.2205714 32.804381,15.2292381 C33.015619,15.2400952 33.1779048,15.4200952 33.1671429,15.6312381 L32.7231429,24.276381 C32.7214286,24.3110476 32.7148571,24.3452381 32.7040952,24.378 L31.0442857,29.3478095 C31.0149524,29.4355238 30.9549524,29.5098095 30.8750476,29.5565714 L27.8868571,31.313619 L25.9828571,38.2638095 C25.9469524,38.3949524 25.8441905,38.4972381 25.7127619,38.532381 L21.028381,39.7862857 C20.9957143,39.7950476 20.962381,39.7993333 20.9294286,39.7993333" id="Fill-33" fill="#000000"></path>
                <path d="M27.5590476,31.4452381 C27.4265714,31.4452381 27.2977143,31.3764762 27.2268571,31.2534286 L24.2942857,26.1593333 C24.2607619,26.1012381 24.2432381,26.0353333 24.2432381,25.9682857 L24.2432381,22.049619 C24.2432381,21.8382857 24.4146667,21.6667619 24.6260952,21.6667619 C24.8375238,21.6667619 25.0089524,21.8382857 25.0089524,22.049619 L25.0089524,25.866 L27.8905714,30.8712381 C27.996,31.0544762 27.9329524,31.2887619 27.7497143,31.3941905 C27.6895238,31.4287619 27.624,31.4452381 27.5590476,31.4452381" id="Fill-34" fill="#000000"></path>
                <path d="M24.6260952,19.1187619 C24.4146667,19.1187619 24.2432381,18.9473333 24.2432381,18.7359048 L24.2432381,15.611619 C24.2432381,15.4001905 24.4146667,15.2287619 24.6260952,15.2287619 C24.8375238,15.2287619 25.0089524,15.4001905 25.0089524,15.611619 L25.0089524,18.7359048 C25.0089524,18.9473333 24.8375238,19.1187619 24.6260952,19.1187619" id="Fill-35" fill="#000000"></path>
                <path d="M13.4094286,23.7057143 C13.346,23.7057143 13.2817143,23.69 13.222381,23.6566667 C13.038,23.5531429 12.9724762,23.3198095 13.0759048,23.1353333 L14.664,20.3064762 L13.8010476,15.6818095 C13.7622857,15.474 13.8993333,15.274 14.1072381,15.2352381 C14.3148571,15.1968571 14.5149524,15.3334286 14.5538095,15.5414286 L15.4422857,20.3025714 C15.4586667,20.3907619 15.443619,20.482 15.3997143,20.5601905 L13.7437143,23.5101905 C13.6734286,23.6352381 13.5434286,23.7057143 13.4094286,23.7057143" id="Fill-36" fill="#000000"></path>
                <path d="M15.6894286,35.0382857 C15.6261905,35.0382857 15.5619048,35.0226667 15.5027619,34.989619 C15.3182857,34.886381 15.2524762,34.6530476 15.3557143,34.4685714 L19.6831429,26.7369524 L19.4595238,21.1728571 C19.4509524,20.961619 19.6154286,20.7835238 19.8267619,20.7749524 C20.0314286,20.7647619 20.2160952,20.9307619 20.2246667,21.1422857 L20.4525714,26.814381 C20.4553333,26.8850476 20.4386667,26.9549524 20.4040952,27.0166667 L16.0239048,34.8424762 C15.9538095,34.9679048 15.8235238,35.0382857 15.6894286,35.0382857" id="Fill-37" fill="#000000"></path>
                <path d="M39.6057143,15.9944762 L1.9047619,15.9944762 C1.69333333,15.9944762 1.52190476,15.8230476 1.52190476,15.611619 C1.52190476,15.4001905 1.69333333,15.2287619 1.9047619,15.2287619 L39.6057143,15.2287619 C39.8171429,15.2287619 39.9885714,15.4001905 39.9885714,15.611619 C39.9885714,15.8230476 39.8171429,15.9944762 39.6057143,15.9944762" id="Fill-38" fill="#000000"></path>
            </g>
        </g>
    </g>
</svg>