<?xml version="1.0" encoding="UTF-8"?>
<svg width="40px" height="40px" viewBox="0 0 40 40" version="1.1" xmlns="http://www.w3.org/2000/svg" xmlns:xlink="http://www.w3.org/1999/xlink">
    <!-- Generator: Sketch 62 (91390) - https://sketch.com -->
    <title>Erosion_40x40</title>
    <desc>Created with Sketch.</desc>
    <g id="Erosion_40x40" stroke="none" stroke-width="1" fill="none" fill-rule="evenodd">
        <g id="shutterstock_1648648360" transform="translate(-1.000000, 2.000000)">
            <path d="M36.419,13.5707 C36.0305,12.9848 35.485,12.5207 34.8445,12.2312 L32.9275,11.3648 C32.411,11.1312 32.0305,10.673 31.8955,10.1227 L31.5795,8.8328 C31.494,8.4859 31.296,8.177 31.0165,7.9543 L29.433,6.6941 C29.1235,6.4477 28.738,6.316 28.342,6.3215 L25.8935,6.3555 C25.506,6.3605 25.133,6.2148 24.852,5.9488 L23.3685,4.5449 C22.792,3.9992 21.9725,3.793 21.206,4.0008 L20.174,4.2809 C19.711,4.4066 19.3345,4.7441 19.159,5.191 L17.6953,8.9277 C17.5719,9.2434 17.3383,9.5031 17.0379,9.6598 L14.441,11.0129 C14.0809,11.2004 13.7801,11.4844 13.5715,11.8328 L10.9711,16.1775 L25.3045,31.2495 L34.5265,34.452 L39.6375,34.452 L39.6375,18.425 L36.419,13.5707" id="Fill-12" fill="#CA5935"></path>
            <path d="M14.5707,16.9275 L15.8215,12.5828 C16.0301,12.2344 16.3309,11.9508 16.691,11.7633 L19.288,10.4098 C19.5885,10.2535 19.8215,9.9934 19.9455,9.6781 L21.409,5.9414 C21.584,5.4941 21.9605,5.1566 22.424,5.0309 L23.456,4.7512 C23.4905,4.7418 23.5255,4.734 23.56,4.7266 L23.3685,4.5453 C22.7915,3.9992 21.9725,3.7934 21.206,4.0012 L20.174,4.2809 C19.7105,4.4066 19.334,4.7441 19.159,5.1914 L17.6949,8.9281 C17.5715,9.2434 17.3379,9.5035 17.0375,9.6598 L14.4406,11.0133 C14.0809,11.2008 13.7797,11.4844 13.5715,11.8328 L10.9707,16.1775 L14.5707,16.9275" id="Fill-13" fill="#A24425"></path>
            <path d="M31.6665,31.2375 C31.5385,31.094 31.44,30.9275 31.3765,30.7465 L30.841,29.2295 C30.6625,28.724 30.254,28.333 29.741,28.1765 L27.5915,27.5225 C27.239,27.415 26.9355,27.187 26.735,26.878 L24.6555,23.6795 C24.276,23.095 23.707,22.6585 23.044,22.4425 L17.7793,20.727 C17.4535,20.6205 17.1758,20.402 16.9965,20.11 L14.468,15.994 C14.1883,15.5387 13.6344,15.3324 13.125,15.4941 L9.7238,16.574 C9.375,16.6845 9.0789,16.919 8.8906,17.232 L8.0809,18.5825 C7.9062,18.873 7.6262,19.0855 7.2984,19.1745 L5.7328,19.602 C5.4414,19.681 5.1734,19.829 4.9504,20.0325 L2.3625,22.3945 L2.3625,34.452 L34.5265,34.452 L31.6665,31.2375" id="Fill-14" fill="#E27858"></path>
            <path d="M5.1918,22.3975 C5.5152,22.1025 5.9043,21.8885 6.3266,21.773 L8.598,21.1535 C9.073,21.024 9.4793,20.716 9.7328,20.294 L10.9078,18.3355 C11.1809,17.881 11.6105,17.5415 12.116,17.3805 L14.7973,16.5295 L14.4684,15.994 C14.1887,15.5383 13.6348,15.3324 13.1254,15.4938 L9.7238,16.574 C9.3754,16.6845 9.0793,16.9185 8.891,17.232 L8.0809,18.582 C7.9062,18.873 7.6262,19.085 7.2988,19.1745 L5.7328,19.6015 C5.4418,19.681 5.1734,19.8285 4.9508,20.032 L2.3625,22.3945 L2.3625,24.98 L5.1918,22.3975" id="Fill-15" fill="#CA5935"></path>
            <g id="Group-28" transform="translate(1.800000, 1.725000)" fill="#000000">
                <path d="M8.8207,3.7547 C9.423,3.8531 10.0266,3.5762 10.3574,3.0492 C11.866,0.6488 15.357,0.4465 17.0955,2.7879 C16.848,3.1234 16.873,3.1828 15.3715,6.9969 C15.2973,7.1859 15.1578,7.3414 14.9777,7.4352 C11.298,9.3656 11.9211,8.8223 10.7664,10.691 M10.093,11.816 L8.7977,13.9805 L7.7535,14.3115 C7.2742,14.464 6.8672,14.7855 6.6086,15.217 L5.7984,16.567 C5.698,16.7345 5.5391,16.8545 5.3508,16.906 L3.7848,17.333 C3.4094,17.4355 3.0586,17.6285 2.7711,17.8905 L0.1832,20.2525 C0.0664,20.36 0,20.51 0,20.6685 L0,27.042 C0,27.3525 0.252,27.6045 0.5625,27.6045 C0.873,27.6045 1.125,27.3525 1.125,27.042 L1.125,20.9165 L3.5297,18.7215 C3.6859,18.579 3.8766,18.474 4.0809,18.4185 L5.6469,17.9915 C6.1164,17.8635 6.5129,17.563 6.7633,17.1455 L7.5734,15.7955 C7.691,15.599 7.8758,15.453 8.0941,15.384 C11.7234,14.2325 11.4977,14.3015 11.5449,14.2905 C11.7941,14.234 12.0531,14.341 12.1887,14.562 C14.8867,18.933 14.7191,18.7275 14.9289,18.9625 C15.1637,19.226 15.466,19.425 15.8051,19.5355 L21.0705,21.251 C21.6085,21.4265 22.0755,21.785 22.384,22.26 L24.4635,25.4585 C24.736,25.8775 25.149,26.189 25.6275,26.3345 L27.7775,26.9885 C28.118,27.0925 28.392,27.355 28.5105,27.6905 C29.019,29.027 29.0205,29.407 29.446,29.8855 L31.473,32.1635 L1.125,32.1635 L1.125,29.279 C1.125,28.9685 0.873,28.7165 0.5625,28.7165 C0.252,28.7165 0,28.9685 0,29.279 L0,32.726 C0,33.0365 0.252,33.2885 0.5625,33.2885 L37.8375,33.2885 C38.148,33.2885 38.4,33.0365 38.4,32.726 L38.4,21.7885 C38.4,21.478 38.148,21.226 37.8375,21.226 C37.527,21.226 37.275,21.478 37.275,21.7885 L37.275,32.1635 L32.979,32.1635 C30.1565,28.9575 30.2125,29.133 30.107,28.833 L29.5715,27.3165 C29.3345,26.6445 28.7865,26.12 28.1045,25.9125 L25.9555,25.258 C25.7295,25.19 25.535,25.043 25.4065,24.8455 L23.3275,21.647 C22.879,20.957 22.201,20.4365 21.419,20.1815 L16.1539,18.466 C15.9551,18.401 15.7855,18.2675 15.6758,18.0895 C13.0027,13.7418 13.1457,13.9602 13.0648,13.8508 C12.682,13.3316 12.0246,13.0504 11.3453,13.1844 C11.2016,13.2129 11.2281,13.2086 10.4164,13.4664 C11.2137,12.134 11.5887,11.5078 12.2543,10.3957 C12.4098,10.1363 12.6332,9.9258 12.9008,9.7863 L15.4977,8.4328 C15.9188,8.2137 16.2461,7.8492 16.4191,7.4074 C17.9795,3.4324 17.89,3.5184 18.1525,3.2945 C18.423,3.0629 18.609,3.0992 19.5535,2.818 C20.1265,2.6625 20.7505,2.8195 21.1815,3.2277 L22.665,4.6316 C23.0545,5.0004 23.566,5.1992 24.101,5.1918 L26.5495,5.1578 C26.815,5.1543 27.0755,5.243 27.283,5.4082 L28.866,6.6684 C29.0475,6.8125 29.1775,7.016 29.233,7.241 L29.549,8.5305 C29.7265,9.2539 30.2175,9.8445 30.896,10.1512 L32.813,11.018 C33.3575,11.2641 33.82,11.6574 34.15,12.1555 L37.275,16.8685 L37.275,19.5385 C37.275,19.8495 37.527,20.101 37.8375,20.101 C38.148,20.101 38.4,19.8495 38.4,19.5385 L38.4,16.699 C38.4,16.3885 38.38,16.558 35.0875,11.5336 C34.64,10.859 34.0135,10.3262 33.276,9.9926 L31.3595,9.1262 C30.9975,8.9629 30.736,8.648 30.642,8.2625 L30.3255,6.973 C30.211,6.5074 29.942,6.0867 29.567,5.7883 L27.9835,4.5281 C27.573,4.2016 27.057,4.0254 26.534,4.0328 L24.085,4.0668 C23.845,4.0703 23.614,3.9805 23.4385,3.8145 L21.955,2.4105 C21.241,1.7348 20.208,1.4746 19.259,1.732 C18.2895,2 18.193,2.009 17.982,2.0957 C15.7535,-0.875 11.3176,-0.5926 9.4051,2.4508 C9.3152,2.5938 9.1562,2.6699 9.0016,2.6445" id="Shape"></path>
            </g>
        </g>
        <path d="M10.7659302,15.7823486 L11.7689819,14.046936 L12.8051147,11.609314 C15.3009644,9.15370687 16.5488892,7.92590332 16.5488892,7.92590332 C16.5488892,7.92590332 16.9977594,7.45490221 17.8955,6.5129 C18.289833,6.12669583 18.6367188,5.87990316 18.9361572,5.77252197 C19.2355957,5.66514079 19.3850182,5.2608846 19.3844248,4.55975342 C16.4350671,3.29779053 14.9314575,2.66680908 14.8735962,2.66680908 C14.8157349,2.66680908 12.6673787,3.47479248 8.42852783,5.09075928 C8.61464437,8.54819743 8.70770264,10.3091227 8.70770264,10.3735352 C8.70770264,10.4379476 9.184611,12.1916097 10.1384277,15.6345215 L10.7659302,15.7823486 Z" id="Path-2" fill="#FFFFFF"></path>
    </g>
</svg>