<?xml version="1.0" encoding="UTF-8"?>
<svg width="40px" height="40px" viewBox="0 0 40 40" version="1.1" xmlns="http://www.w3.org/2000/svg" xmlns:xlink="http://www.w3.org/1999/xlink">
    <!-- Generator: Sketch 62 (91390) - https://sketch.com -->
    <title>Especies_40x40</title>
    <desc>Created with Sketch.</desc>
    <g id="Especies_40x40" stroke="none" stroke-width="1" fill="none" fill-rule="evenodd">
        <g id="Animales/ballena" transform="translate(0.000000, 3.000000)">
            <g id="shutterstock_383305201-(1)" transform="translate(0.000000, -0.000000)">
                <path d="M38.6194667,13.9232667 C38.6031333,12.6035333 38.4708,11.4254 38.203,10.2159333 C38.1755333,10.0919333 38.0594,10.0092 37.9327333,10.0222667 C37.8065333,10.036 37.7109333,10.1426667 37.7109333,10.2697333 C37.7109333,10.7233333 37.3306,11.2286667 36.7849333,11.2286667 C36.2616667,11.2286667 35.836,10.8466667 35.836,10.3772 C35.836,10.2398 35.7244667,10.1282667 35.5870667,10.1282667 C35.4496,10.1282667 35.3380667,10.2398 35.3380667,10.3772 C35.3380667,10.8466667 34.9123333,11.2286667 34.3888,11.2286667 C33.8655333,11.2286667 33.4398,10.8466667 33.4398,10.3772 C33.4398,10.2398 33.3282,10.1282667 33.1907333,10.1282667 C33.0534,10.1282667 32.9418,10.2398 32.9418,10.3772 C32.9418,10.8466667 32.5162,11.2286667 31.9929333,11.2286667 C31.4696,11.2286667 31.0438,10.8466667 31.0438,10.3772 C31.0438,10.2398 30.9322667,10.1282667 30.7948667,10.1282667 C30.6572667,10.1282667 30.5458667,10.2398 30.5458667,10.3772 C30.5458667,10.8466667 30.1201333,11.2286667 29.5968,11.2286667 C29.0736667,11.2286667 28.6477333,10.8466667 28.6477333,10.3772 C28.6477333,10.2398 28.5363333,10.1282667 28.3987333,10.1282667 C28.2613333,10.1282667 28.1498,10.2398 28.1498,10.3772 C28.1498,10.8466667 27.724,11.2286667 27.2005333,11.2286667 C26.6772667,11.2286667 26.2516,10.8466667 26.2516,10.3772 C26.2516,10.2398 26.1402667,10.1282667 26.0026667,10.1282667 C25.8652667,10.1282667 25.7537333,10.2398 25.7537333,10.3772 C25.7537333,10.8466667 25.3279333,11.2286667 24.8048,11.2286667 C24.2813333,11.2286667 23.8555333,10.8466667 23.8555333,10.3772 C23.8555333,10.2398 23.744,10.1282667 23.6066,10.1282667 C23.4691333,10.1282667 23.3576,10.2398 23.3576,10.3772 C23.3576,10.8466667 22.9318667,11.2286667 22.4085333,11.2286667 C21.8854,11.2286667 21.4596667,10.8466667 21.4596667,10.3772 C21.4596667,10.2398 21.3480667,10.1282667 21.2106667,10.1282667 C21.0732667,10.1282667 20.9616667,10.2398 20.9616667,10.3772 C20.9616667,10.8466667 20.5358667,11.2286667 20.0124667,11.2286667 C19.4893333,11.2286667 19.0635333,10.8466667 19.0635333,10.3772 C19.0635333,10.2398 18.9521333,10.1282667 18.8145333,10.1282667 C18.677,10.1282667 18.5656,10.2398 18.5656,10.3772 C18.5656,10.8466667 18.1398,11.2286667 17.6163333,11.2286667 C17.0932,11.2286667 16.6674,10.8466667 16.6674,10.3772 C16.6674,10.2398 16.556,10.1282667 16.4184667,10.1282667 C16.2808667,10.1282667 16.1694667,10.2398 16.1694667,10.3772 C16.1694667,10.8466667 15.7436667,11.2286667 15.2206,11.2286667 C14.6971333,11.2286667 14.2713333,10.8466667 14.2713333,10.3772 C14.2713333,10.2398 14.1599333,10.1282667 14.0225333,10.1282667 C13.8848,10.1282667 13.7736,10.2398 13.7736,10.3772 C13.7736,10.8466667 13.3476,11.2286667 12.8243333,11.2286667 C12.3010667,11.2286667 11.8754,10.8466667 11.8754,10.3772 C11.8754,10.2398 11.7638667,10.1282667 11.6264,10.1282667 C11.4888667,10.1282667 11.3774667,10.2398 11.3774667,10.3772 C11.3774667,10.8466667 10.9514667,11.2286667 10.4284,11.2286667 C9.90493333,11.2286667 9.47926667,10.8466667 9.47926667,10.3772 C9.47926667,10.2398 9.36773333,10.1282667 9.23033333,10.1282667 C9.0928,10.1282667 8.9814,10.2398 8.9814,10.3772 C8.9814,10.8466667 8.55553333,11.2286667 8.03226667,11.2286667 C7.5088,11.2286667 7.0832,10.8466667 7.0832,10.3772 C7.0832,10.2398 6.97166667,10.1282667 6.83426667,10.1282667 C6.69666667,10.1282667 6.58526667,10.2398 6.58526667,10.3772 C6.58526667,10.8466667 6.15946667,11.2286667 5.6362,11.2286667 C5.11286667,11.2286667 4.68713333,10.8466667 4.68713333,10.3772 C4.68713333,10.2398 4.57573333,10.1282667 4.43813333,10.1282667 C4.30073333,10.1282667 4.1892,10.2398 4.1892,10.3772 C4.1892,10.8466667 3.76353333,11.2286667 3.24013333,11.2286667 C2.70653333,11.2286667 2.27233333,10.8594667 2.27233333,10.4053333 C2.27233333,10.2778 2.17553333,10.1706 2.0486,10.1576667 C1.9218,10.1441333 1.8052,10.2301333 1.77946667,10.3552667 C1.4986,11.7206667 1.36453333,13.0756 1.38053333,14.3824 C1.4414,19.3154 3.40826667,23.9402667 6.9188,27.4054 C10.4261333,30.8674 15.0697333,32.7736667 19.9944667,32.7736667 C20.0674,32.7684667 20.1514667,32.7734 20.2296667,32.7724 C25.2031333,32.7108667 29.8550667,30.7165333 33.3284,27.1564667 C36.8016,23.5962667 38.6806667,18.8966667 38.6194667,13.9232667" id="Fill-7" fill="#53AAB2"></path>
                <path d="M38.6194667,13.9232667 C38.6031333,12.6035333 38.4708,11.4254 38.203,10.2159333 C38.1755333,10.0919333 38.0594,10.0092 37.9327333,10.0222667 C37.8065333,10.036 37.7109333,10.1426667 37.7109333,10.2697333 C37.7109333,10.6786667 37.4011333,11.1285333 36.9402,11.2132667 C36.8397333,15.9485333 34.9772,20.3993333 31.6533333,23.8063333 C28.1800667,27.3664667 23.5280667,29.3608 18.5546,29.4223333 C18.4764,29.4233333 18.3923333,29.4183333 18.3194,29.4236 C13.3947333,29.4236 8.75106667,27.5172667 5.24373333,24.0553333 C4.22186667,23.0466667 3.33186667,21.9390667 2.58053333,20.7549333 C3.51686667,23.2292 4.98233333,25.494 6.9188,27.4054 C10.4261333,30.8674 15.0697333,32.7736667 19.9944667,32.7736667 C20.0674,32.7684667 20.1514667,32.7734 20.2296667,32.7724 C25.2031333,32.7108667 29.8550667,30.7165333 33.3284,27.1564667 C36.8016,23.5962667 38.6806667,18.8966667 38.6194667,13.9232667" id="Fill-8" fill="#49979E"></path>
                <path d="M16.7618,15.9830667 C17.1562,15.9830667 17.4756667,16.3023333 17.4756667,16.6967333 C17.4756667,17.0894667 17.1562,17.4088 16.7618,17.4088 C16.3674,17.4088 16.0479333,17.0894667 16.0479333,16.6967333 C16.0479333,16.3023333 16.3674,15.9830667 16.7618,15.9830667" id="Fill-31" fill="#49979E"></path>
                <path d="M29.6648667,1.5286 L34.3938667,1.5286 C34.3938667,4.38193333 32.3943333,6.7644 29.7202,7.36246667 C29.5541333,7.42426667 29.3781333,7.43086667 29.2037333,7.4114 L29.2037333,5.76053333 C29.2037333,5.32393333 28.8500667,4.96866667 28.4133333,4.96866667 C27.9765333,4.96866667 27.6212667,5.32393333 27.6212667,5.76053333 C27.6212667,5.97566667 27.6132667,6.18753333 27.5986,6.39933333 C27.5936,6.46773333 27.5871333,6.5362 27.5805333,6.60473333 C27.5676667,6.73826667 27.5513333,6.87206667 27.5332667,7.00553333 C27.5332667,7.01373333 27.5318,7.02186667 27.5301333,7.02846667 C27.5105333,7.16193333 27.4876,7.29406667 27.4632667,7.42593333 C24.6130667,6.96973333 22.4327333,4.50733333 22.4327333,1.5286 L27.1618,1.5286 L28.4133333,3.69586667 L29.6648667,1.5286" id="Fill-32" fill="#7FD8DF"></path>
                <path d="M33.0539333,1.5286 C33.0539333,4.08013333 31.4542,6.25406667 29.2037333,7.11313333 L29.2037333,7.4114 C29.3781333,7.43086667 29.5541333,7.42426667 29.7202,7.36246667 C32.3943333,6.7644 34.3938667,4.38193333 34.3938667,1.5286 L33.0539333,1.5286" id="Fill-33" fill="#5CBDC5"></path>
                <path d="M23.7943333,1.5286 C23.7943333,4.08013333 25.394,6.25406667 27.6445333,7.11313333 L27.6445333,7.4114 C27.4701333,7.43086667 27.2941333,7.42426667 27.1281333,7.36246667 C24.4539333,6.7644 22.4542667,4.38193333 22.4542667,1.5286 L23.7943333,1.5286" id="Fill-34" fill="#98E0E6"></path>
                <path d="M6.91093333,16.3952667 C13.3168667,16.4327333 18.6162667,20.4415333 19.5744,25.6724667 C19.576,25.6822 19.5776667,25.6904 19.5792667,25.7002667 L19.5792667,25.7278667 C19.0594667,25.8013333 18.5264667,25.8386 17.9889333,25.8386 C12.4253333,25.8386 7.7958,21.7043333 6.91093333,16.3952667" id="Fill-35" fill="#FFFFFF"></path>
                <path d="M19.5744,25.6724667 C18.6162667,20.4415333 13.3168667,16.4327333 6.91093333,16.3952667 C6.91686667,16.4306 6.92473333,16.4652667 6.93093333,16.5006 C12.5575333,17.1632667 17.0271333,20.911 17.8993333,25.6724667 C17.901,25.6822 17.9026,25.6904 17.9042,25.7002667 L17.9042,25.7278667 C17.6628,25.7621333 17.4180667,25.7876 17.1717333,25.8059333 C17.4419333,25.8258667 17.7138667,25.8386 17.9889333,25.8386 C18.5264667,25.8386 19.0594667,25.8013333 19.5792667,25.7278667 L19.5792667,25.7002667 C19.5776667,25.6904 19.576,25.6822 19.5744,25.6724667" id="Fill-36" fill="#C3EDF0"></path>
                <path d="M27.2005333,11.2286667 C27.724,11.2286667 28.1498,10.8466667 28.1498,10.3772 C28.1498,10.2398 28.2613333,10.1282667 28.3987333,10.1282667 C28.5363333,10.1282667 28.6477333,10.2398 28.6477333,10.3772 C28.6477333,10.7208667 28.8764,11.0168 29.2037333,11.1512667 L29.2037333,5.76053333 C29.2037333,5.32393333 28.8500667,4.96866667 28.4133333,4.96866667 C27.9765333,4.96866667 27.6212667,5.32393333 27.6212667,5.76053333 C27.6212667,5.97566667 27.6132667,6.18753333 27.5986,6.39933333 C27.5936,6.46773333 27.5887333,6.5362 27.5805333,6.60473333 C27.5690667,6.73986667 27.5529333,6.87353333 27.5332667,7.00553333 C27.5332667,7.01373333 27.5318,7.02186667 27.5301333,7.02846667 C27.5122,7.16193333 27.4894667,7.29406667 27.4632667,7.42593333 C27.2537333,8.5304 26.8377333,9.56126667 26.2592,10.4794667 C26.3156,10.9008667 26.7158667,11.2286667 27.2005333,11.2286667" id="Fill-37" fill="#E6F8F9"></path>
                <path d="M28.4133333,4.96866667 C28.0564,4.96866667 27.7575333,5.20733333 27.6587333,5.53233333 C27.6808,5.605 27.6962,5.68053333 27.6962,5.76053333 L27.6962,11.102 C27.9677333,10.952 28.1498,10.6837333 28.1498,10.3772 C28.1498,10.2398 28.2613333,10.1282667 28.3987333,10.1282667 C28.5363333,10.1282667 28.6477333,10.2398 28.6477333,10.3772 C28.6477333,10.7208667 28.8764,11.0168 29.2037333,11.1512667 L29.2037333,5.76053333 C29.2037333,5.32393333 28.8500667,4.96866667 28.4133333,4.96866667" id="Fill-38" fill="#C3EDF0"></path>
                <path d="M16.7618,17.4088 C16.3674,17.4088 16.0479333,17.0894667 16.0479333,16.6967333 C16.0479333,16.3023333 16.3674,15.9830667 16.7618,15.9830667 C17.1562,15.9830667 17.4756667,16.3023333 17.4756667,16.6967333 C17.4756667,17.0894667 17.1562,17.4088 16.7618,17.4088 Z M18.7579333,14.6238667 L6.774,14.6238667 C5.92506667,15.4728667 6.88333333,16.2258 6.91093333,16.3952667 C13.3168667,16.4327333 18.6162667,20.4415333 19.5744,25.6724667 C21.3213333,28.2960667 24.4078,29.8034667 27.0445333,28.0695333 L24.2904667,23.9026667 C27.2563333,21.8836667 29.2037333,18.4828 29.2037333,14.6238667 L29.2037333,11.1512667 C28.8764,11.0168 28.6477333,10.7208667 28.6477333,10.3772 C28.6477333,10.2398 28.5363333,10.1282667 28.3987333,10.1282667 C28.2613333,10.1282667 28.1498,10.2398 28.1498,10.3772 C28.1498,10.8466667 27.724,11.2286667 27.2005333,11.2286667 C26.7158667,11.2286667 26.3156,10.9008667 26.2592,10.4794667 C24.6907333,12.9686 21.9186,14.6238667 18.7579333,14.6238667 L18.7579333,14.6238667 Z" id="Fill-39" fill="#65D0D9"></path>
                <path d="M16.7618,17.4088 C16.3674,17.4088 16.0479333,17.0894667 16.0479333,16.6967333 C16.0479333,16.3023333 16.3674,15.9830667 16.7618,15.9830667 C17.1562,15.9830667 17.4756667,16.3023333 17.4756667,16.6967333 C17.4756667,17.0894667 17.1562,17.4088 16.7618,17.4088 Z M18.7579333,14.6238667 L6.774,14.6238667 C5.92506667,15.4728667 6.88333333,16.2258 6.91093333,16.3952667 C13.3168667,16.4327333 18.6162667,20.4415333 19.5744,25.6724667 C21.3213333,28.2960667 24.4078,29.8034667 27.0445333,28.0695333 L24.2904667,23.9026667 C27.2563333,21.8836667 29.2037333,18.4828 29.2037333,14.6238667 L29.2037333,11.1512667 C28.8764,11.0168 28.6477333,10.7208667 28.6477333,10.3772 C28.6477333,10.2398 28.5363333,10.1282667 28.3987333,10.1282667 C28.2613333,10.1282667 28.1498,10.2398 28.1498,10.3772 C28.1498,10.8466667 27.724,11.2286667 27.2005333,11.2286667 C26.7158667,11.2286667 26.3156,10.9008667 26.2592,10.4794667 C24.6907333,12.9686 21.9186,14.6238667 18.7579333,14.6238667 L18.7579333,14.6238667 Z" id="Fill-40" fill="#65D0D9"></path>
                <path d="M26.4472667,10.8921333 C26.3473333,10.7747333 26.2797333,10.6335333 26.2592,10.4794667 C26.0962,10.7380667 25.9196,10.9872 25.7314667,11.2268 C26.0233333,11.2164 26.2809333,11.0876 26.4472667,10.8921333" id="Fill-41" fill="#5CBDC5"></path>
                <path d="M29.2037333,14.6238667 L29.2037333,11.1512667 C28.8764,11.0168 28.6477333,10.7208667 28.6477333,10.3772 C28.6477333,10.2398 28.5363333,10.1282667 28.3987333,10.1282667 C28.2613333,10.1282667 28.1498,10.2398 28.1498,10.3772 C28.1498,10.7017333 27.9464667,10.9840667 27.6482667,11.1277333 C27.6643333,11.1352 27.6794667,11.1444 27.6962,11.1512667 L27.6962,14.6238667 C27.6962,18.4828 25.7488,21.8836667 22.7829333,23.9026667 L25.537,28.0695333 C24.9944,28.4264 24.4326,28.644 23.8676667,28.7448 C24.9245333,28.9263333 26.0183333,28.7442667 27.0445333,28.0695333 L24.2904667,23.9026667 C27.2563333,21.8836667 29.2037333,18.4828 29.2037333,14.6238667" id="Fill-42" fill="#5CBDC5"></path>
                <path d="M27.5338,7.34053333 C27.5187333,7.34053333 27.5036667,7.33953333 27.4884667,7.33753333 C27.3050667,7.3128 27.1764667,7.1442 27.2012,6.9608 C27.2186667,6.83146667 27.2346,6.70186667 27.2472,6.57246667 C27.2534,6.507 27.2596667,6.44113333 27.2643333,6.37533333 C27.2776,6.19073333 27.4362667,6.0492 27.6226,6.0652 C27.8070667,6.0784 27.9459333,6.2388 27.9327333,6.42326667 C27.9276667,6.49426667 27.9208,6.5654 27.9140667,6.6366 C27.9006667,6.77466667 27.8838667,6.9126 27.8653333,7.05026667 C27.8426,7.2184 27.6988,7.34053333 27.5338,7.34053333" id="Fill-43" fill="#000000"></path>
                <path d="M27.4636,7.761 C27.4460667,7.761 27.4282667,7.75966667 27.4102667,7.7568 C24.332,7.264 22.0977333,4.64466667 22.0977333,1.5286 C22.0977333,1.3436 22.2477333,1.1936 22.4327333,1.1936 L27.1618,1.1936 C27.2815333,1.1936 27.3921333,1.25746667 27.4519333,1.36113333 L28.4133333,3.02593333 L29.3746667,1.36113333 C29.4346,1.25746667 29.5451333,1.1936 29.6648667,1.1936 L34.3938667,1.1936 C34.5789333,1.1936 34.7289333,1.3436 34.7289333,1.5286 C34.7289333,4.45166667 32.6632667,7.0372 29.8140667,7.68473333 C29.6214667,7.752 29.4097333,7.77146667 29.1666,7.74433333 C28.9827333,7.7238 28.8502667,7.55813333 28.8708667,7.37426667 C28.8914667,7.19033333 29.0578,7.0588 29.2408667,7.0784 C29.3871333,7.09486667 29.5055333,7.0848 29.6032,7.0486 C29.6176,7.04313333 29.6321333,7.03886667 29.647,7.03553333 C32.0938,6.48826667 33.8986,4.3432 34.0487333,1.8636 L29.8582,1.8636 L28.7035333,3.86333333 C28.6436,3.967 28.5330667,4.03086667 28.4133333,4.03086667 C28.2936,4.03086667 28.183,3.967 28.1231333,3.86333333 L26.9684,1.8636 L22.7774,1.8636 C22.9238,4.39 24.7172667,6.491 27.1905333,7.0334 C27.1933333,7.01546667 27.1961333,6.9976 27.1987333,6.97966667 C27.2258,6.79646667 27.397,6.67006667 27.5789333,6.69706667 C27.762,6.72393333 27.8885333,6.89413333 27.8616,7.0772 C27.8414667,7.21473333 27.8177333,7.35093333 27.7927333,7.48686667 C27.7629333,7.6478 27.6224,7.76093333 27.4636,7.761" id="Fill-44" fill="#000000"></path>
                <path d="M23.0294667,24.9808667 C22.9069333,24.9808667 22.7892,24.9136 22.7301333,24.7969333 C22.6466667,24.6318 22.7129333,24.4302 22.878,24.3468 C23.3006667,24.1333333 23.7125333,23.8905333 24.1020667,23.6258 C27.0867333,21.5937333 28.8687333,18.2286667 28.8687333,14.6238667 C28.8687333,14.4388667 29.0187333,14.2888667 29.2037333,14.2888667 C29.3887333,14.2888667 29.5387333,14.4388667 29.5387333,14.6238667 C29.5387333,18.4505333 27.6472667,22.0228667 24.4791333,24.1796 C24.0655333,24.4608 23.6286667,24.7182667 23.1802667,24.9448667 C23.1317333,24.9694 23.0802,24.9808667 23.0294667,24.9808667" id="Fill-45" fill="#000000"></path>
                <path d="M29.2037333,14.9588667 C29.0187333,14.9588667 28.8687333,14.8088667 28.8687333,14.6238667 L28.8687333,5.76053333 C28.8687333,5.5086 28.6644,5.30366667 28.4133333,5.30366667 C28.1612667,5.30366667 27.9562667,5.5086 27.9562667,5.76053333 C27.9562667,5.978 27.9486,6.1946 27.9327333,6.42253333 C27.9273333,6.4974 27.9219333,6.57086667 27.9132667,6.64446667 C27.9032667,6.76366667 27.8872667,6.9002 27.8668,7.04006667 C27.8654667,7.05533333 27.8633333,7.07066667 27.8604,7.08593333 C27.8428,7.21553333 27.8202,7.34833333 27.7918667,7.4912 C26.9713333,11.8171333 23.1719333,14.9588667 18.7579333,14.9588667 C18.5729333,14.9588667 18.4229333,14.8088667 18.4229333,14.6238667 C18.4229333,14.4388667 18.5729333,14.2888667 18.7579333,14.2888667 C22.8503333,14.2888667 26.3730667,11.3764 27.1341333,7.36353333 C27.1613333,7.22686667 27.1820667,7.10353333 27.1981333,6.98366667 C27.1987333,6.97973333 27.1992,6.97586667 27.1998667,6.97193333 C27.2005333,6.96666667 27.2012,6.96146667 27.2018667,6.95633333 C27.2216667,6.82326667 27.2364,6.699 27.2466667,6.57646667 C27.2553333,6.50206667 27.2597333,6.439 27.2643333,6.37613333 C27.2790667,6.1638 27.2862667,5.9624 27.2862667,5.76053333 C27.2862667,5.1392 27.7918667,4.63366667 28.4133333,4.63366667 C29.0339333,4.63366667 29.5387333,5.1392 29.5387333,5.76053333 L29.5387333,14.6238667 C29.5387333,14.8088667 29.3887333,14.9588667 29.2037333,14.9588667" id="Fill-46" fill="#000000"></path>
                <path d="M26.4186,14.9588667 L25.8060667,14.9588667 C25.621,14.9588667 25.471,14.8088667 25.471,14.6238667 C25.471,14.4388667 25.621,14.2888667 25.8060667,14.2888667 L26.4186,14.2888667 C26.6036667,14.2888667 26.7536667,14.4388667 26.7536667,14.6238667 C26.7536667,14.8088667 26.6036667,14.9588667 26.4186,14.9588667" id="Fill-47" fill="#000000"></path>
                <path d="M19.5792667,26.0628667 C19.3942667,26.0628667 19.2442667,25.9128667 19.2442667,25.7278667 L19.2442667,25.7002667 C19.2442667,25.5152667 19.3942667,25.3652667 19.5792667,25.3652667 C19.7642667,25.3652667 19.9142667,25.5152667 19.9142667,25.7002667 L19.9142667,25.7278667 C19.9142667,25.9128667 19.7642667,26.0628667 19.5792667,26.0628667" id="Fill-48" fill="#000000"></path>
                <path d="M17.9889333,26.1736 C15.2424,26.1736 12.5743333,25.1748 10.4763333,23.3612667 C8.42106667,21.5847333 7.04166667,19.1487333 6.58846667,16.4974 C6.57373333,16.4763333 6.55393333,16.4514 6.53206667,16.4224667 C6.29273333,16.1065333 5.6568,15.2673333 6.5372,14.387 C6.6,14.3242 6.6852,14.2888667 6.774,14.2888667 L24.5789333,14.2888667 C24.7638667,14.2888667 24.9138667,14.4388667 24.9138667,14.6238667 C24.9138667,14.8088667 24.7638667,14.9588667 24.5789333,14.9588667 L6.92193333,14.9588667 C6.60806667,15.3453333 6.7928,15.6570667 7.06613333,16.0178667 C7.15693333,16.1376667 7.22246667,16.2243333 7.24166667,16.3413333 C8.11206667,21.5642 12.7324667,25.5036667 17.9889333,25.5036667 C18.5084667,25.5036667 19.0278,25.4674667 19.5324,25.3961333 C19.7158,25.3703333 19.8851333,25.4979333 19.911,25.6809333 C19.9368667,25.8641333 19.8093333,26.0338 19.6261333,26.0596667 C19.0906,26.1352 18.5397333,26.1736 17.9889333,26.1736" id="Fill-49" fill="#000000"></path>
                <path d="M19.5788667,26.0352667 C19.4180667,26.0352667 19.2762,25.9191333 19.2488667,25.7553333 L19.5792667,25.7002667 L19.2472,25.7462 C19.2468667,25.7446 19.2442,25.7292 19.2439333,25.7275333 C18.7938,23.2703333 17.317,21.0055333 15.0863333,19.3557333 C12.8212,17.6802667 9.91713333,16.7478667 6.909,16.7302667 C6.724,16.7292 6.57486667,16.5783333 6.57592765,16.3932667 C6.57706667,16.2083333 6.73293333,16.0595333 6.91293333,16.060264 C10.0620667,16.0786667 13.1062667,17.0576667 15.4848,18.8170667 C17.8527333,20.5682667 19.4220667,22.9816 19.9039333,25.6121333 L19.9097333,25.6451333 C19.9401333,25.8276667 19.8168667,26.0002667 19.6343333,26.0306667 C19.6157333,26.0338 19.5972,26.0352667 19.5788667,26.0352667" id="Fill-50" fill="#000000"></path>
                <path d="M16.7618,16.3180667 C16.5529333,16.3180667 16.3829333,16.4879333 16.3829333,16.6967333 C16.3829333,16.9046 16.5529333,17.0737333 16.7618,17.0737333 C16.9707333,17.0737333 17.1406667,16.9046 17.1406667,16.6967333 C17.1406667,16.4879333 16.9707333,16.3180667 16.7618,16.3180667 Z M16.7618,17.7438 C16.1834667,17.7438 15.7129333,17.2740667 15.7129333,16.6967333 C15.7129333,16.1184667 16.1834667,15.6480667 16.7618,15.6480667 C17.3401333,15.6480667 17.8106667,16.1184667 17.8106667,16.6967333 C17.8106667,17.2740667 17.3401333,17.7438 16.7618,17.7438 L16.7618,17.7438 Z" id="Fill-51" fill="#000000"></path>
                <path d="M24.6427333,29.1458667 C22.5629333,29.1458667 20.5543333,27.744 19.3012,25.8666 C19.2900667,25.8515333 19.2806,25.8375333 19.2709333,25.8226 C19.1700667,25.6681333 19.2100667,25.4564 19.3642667,25.3549333 C19.5184667,25.2538667 19.7224667,25.2912667 19.8244667,25.4449333 C19.8248667,25.4456 19.8316,25.4558667 19.832,25.4565333 C19.8370667,25.4628667 19.8486667,25.4798667 19.8532,25.4868 C21.3830667,27.7842667 24.1403333,29.3136667 26.5730667,27.9636667 L24.0125333,24.0898667 C23.9142667,23.9440667 23.9427333,23.7424 24.0837333,23.6339333 C24.2308,23.521 24.4385333,23.5456 24.5510667,23.692 C24.556,23.6984 24.5656,23.7113333 24.5700667,23.718 L27.3240667,27.8848 C27.373,27.9591333 27.3906,28.0497333 27.3726667,28.1369333 C27.3548,28.2240667 27.3029333,28.3005333 27.2285333,28.3494 C26.3872667,28.9026 25.5088667,29.1458667 24.6427333,29.1458667" id="Fill-52" fill="#000000"></path>
                <path d="M34.2308,15.8854 C34.2308,16.2836667 33.9080667,16.6064667 33.5097333,16.6064667 C33.1114667,16.6064667 32.7887333,16.2836667 32.7887333,15.8854 C32.7887333,15.4870667 33.1114667,15.1643333 33.5097333,15.1643333 C33.9080667,15.1643333 34.2308,15.4870667 34.2308,15.8854" id="Fill-53" fill="#98E0E6"></path>
                <path d="M32.5139333,17.6122667 C32.5139333,17.8949333 32.2848667,18.1239333 32.0022,18.1239333 C31.7195333,18.1239333 31.4905333,17.8949333 31.4905333,17.6122667 C31.4905333,17.3296 31.7195333,17.1006 32.0022,17.1006 C32.2848667,17.1006 32.5139333,17.3296 32.5139333,17.6122667" id="Fill-54" fill="#98E0E6"></path>
                <path d="M33.9900667,17.4918667 C33.9900667,17.708 33.8148667,17.8832 33.5987333,17.8832 C33.3826667,17.8832 33.2074667,17.708 33.2074667,17.4918667 C33.2074667,17.2758 33.3826667,17.1006 33.5987333,17.1006 C33.8148667,17.1006 33.9900667,17.2758 33.9900667,17.4918667" id="Fill-55" fill="#98E0E6"></path>
                <path d="M15.2748667,12.6954667 C15.2748667,12.9781333 15.0458667,13.2070667 14.7632,13.2070667 C14.4805333,13.2070667 14.2515333,12.9781333 14.2515333,12.6954667 C14.2515333,12.4127333 14.4805333,12.1838 14.7632,12.1838 C15.0458667,12.1838 15.2748667,12.4127333 15.2748667,12.6954667" id="Fill-56" fill="#98E0E6"></path>
                <path d="M16.751,12.5750667 C16.751,12.7911333 16.576,12.9663333 16.3597333,12.9663333 C16.1438,12.9663333 15.9684667,12.7911333 15.9684667,12.5750667 C15.9684667,12.3589333 16.1438,12.1838 16.3597333,12.1838 C16.576,12.1838 16.751,12.3589333 16.751,12.5750667" id="Fill-57" fill="#98E0E6"></path>
                <path d="M4.52646667,19.7862667 C4.2464,19.5029333 4.24906667,19.0465333 4.53233333,18.7664667 C4.81566667,18.4866 5.2722,18.4894 5.55213333,18.7727333 C5.83213333,19.056 5.82933333,19.5124 5.54606667,19.7924667 C5.26273333,20.0723333 4.8062,20.0695333 4.52646667,19.7862667" id="Fill-58" fill="#98E0E6"></path>
                <path d="M4.53386667,17.3512 C4.33526667,17.1501333 4.33706667,16.8261333 4.53826667,16.6275333 C4.73913333,16.429 5.063,16.4309333 5.26173333,16.6318 C5.46033333,16.8328 5.45853333,17.1568667 5.25733333,17.3554667 C5.05646667,17.5540667 4.7324,17.5520667 4.53386667,17.3512" id="Fill-59" fill="#98E0E6"></path>
                <path d="M6.837,22.7951333 C6.63846667,22.5940667 6.64026667,22.27 6.84146667,22.0714 C7.04233333,21.8728667 7.3662,21.8748 7.56493333,22.0756667 C7.76353333,22.2766667 7.76173333,22.6008 7.56053333,22.7993333 C7.35966667,22.9979333 7.0356,22.9959333 6.837,22.7951333" id="Fill-60" fill="#98E0E6"></path>
                <path d="M3.56853333,18.4743333 C3.4166,18.3206 3.41806667,18.0729333 3.57186667,17.9209333 C3.7254,17.769 3.97326667,17.7706667 4.12506667,17.9244 C4.277,18.078 4.27553333,18.3258 4.1218,18.4776 C3.96806667,18.6294 3.7204,18.6281333 3.56853333,18.4743333" id="Fill-61" fill="#98E0E6"></path>
                <path d="M30.821,21.6722667 C30.6690667,21.5185333 30.6706,21.2708667 30.8242667,21.1190667 C30.9779333,20.9671333 31.2257333,20.9685333 31.3775333,21.1223333 C31.5294667,21.2761333 31.528,21.5237333 31.3742,21.6756 C31.2205333,21.8275333 30.9728667,21.8260667 30.821,21.6722667" id="Fill-62" fill="#98E0E6"></path>
                <path d="M7.82566667,24.5625333 C7.67373333,24.4088 7.6752,24.161 7.829,24.0092 C7.98253333,23.8573333 8.2304,23.8586667 8.38213333,24.0124667 C8.53413333,24.1662 8.53266667,24.4138667 8.37893333,24.5658 C8.22513333,24.7178 7.97746667,24.7161333 7.82566667,24.5625333" id="Fill-63" fill="#98E0E6"></path>
            </g>
        </g>
    </g>
</svg>