<?xml version="1.0" encoding="UTF-8"?>
<svg width="40px" height="40px" viewBox="0 0 40 40" version="1.1" xmlns="http://www.w3.org/2000/svg" xmlns:xlink="http://www.w3.org/1999/xlink">
    <!-- Generator: Sketch 62 (91390) - https://sketch.com -->
    <title>AumentarGrosor_40x40</title>
    <desc>Created with Sketch.</desc>
    <g id="AumentarGrosor_40x40" stroke="none" stroke-width="1" fill="none" fill-rule="evenodd">
        <g id="Habilidades/evolucion" transform="translate(0.000000, 8.000000)">
            <g id="shutterstock_1267576033">
                <path d="M13.8906,10.7906 L13.8269,10.7269 C11.6906,8.5905 8.2269,8.5905 6.0905,10.7269 L1.8073,15.0101 C1.9722,17.2213 2.5446,19.3188 3.4576,21.2236 L13.8906,10.7906" id="Fill-29" fill="#FAD67C"></path>
                <path d="M2.2228,15.163 C2.3818,17.0322 2.8383,18.8343 3.5819,20.5307 L13.3153,10.7973 C11.327,9.0377 8.277,9.1096 6.3748,11.0111 L2.2228,15.163 Z M3.4575,21.6256 C3.4351,21.6256 3.4124,21.6236 3.3898,21.6198 C3.2612,21.5979 3.1514,21.5148 3.095,21.3973 C2.1406,19.4061 1.5724,17.267 1.4063,15.04 C1.3977,14.9233 1.4403,14.8085 1.523,14.7258 L5.8063,10.4427 C8.0959,8.153 11.8215,8.153 14.1112,10.4427 L14.1747,10.506 C14.2501,10.5813 14.2927,10.6837 14.2927,10.7903 C14.2927,10.897 14.2503,10.9994 14.1749,11.0748 L3.7417,21.5078 C3.6658,21.5837 3.5632,21.6256 3.4575,21.6256 L3.4575,21.6256 Z" id="Fill-30" fill="#0A0B09"></path>
                <polyline id="Fill-31" fill="#EFA56F" points="9.9587 14.7225 15.7711 20.5349 19.703 16.603 13.8906 10.7906 9.9587 14.7225"></polyline>
                <path d="M10.5272,14.7225 L15.7711,19.9665 L19.1344,16.603 L13.8906,11.3591 L10.5272,14.7225 Z M15.7711,20.9369 C15.6646,20.9369 15.5623,20.8945 15.4869,20.8191 L9.6745,15.0067 C9.5174,14.8498 9.5174,14.5952 9.6745,14.4382 L13.6064,10.5063 C13.7572,10.3555 14.0241,10.3555 14.1749,10.5063 L19.9873,16.3188 C20.1442,16.4757 20.1442,16.7303 19.9873,16.8872 L16.0554,20.8191 C15.98,20.8945 15.8777,20.9369 15.7711,20.9369 L15.7711,20.9369 Z" id="Fill-32" fill="#0A0B09"></path>
                <path d="M37.653,1.3881 L29.0468,1.3881 C28.4375,1.3881 28.1324,2.1247 28.5632,2.5555 L31.1568,5.1491 L15.7711,20.5349 C17.9426,22.7064 21.4634,22.7064 23.635,20.5349 L35.0888,9.0811 L37.1695,11.1618 C37.6003,11.5926 38.3369,11.2875 38.3369,10.6783 L38.3369,2.072 C38.3369,1.6943 38.0307,1.3881 37.653,1.3881" id="Fill-33" fill="#FAD67C"></path>
                <path d="M16.3506,20.5239 C18.3753,22.2572 21.4349,22.1659 23.3508,20.2507 L34.8045,8.7968 C34.9615,8.6397 35.2159,8.6397 35.3729,8.7968 L37.4537,10.8776 C37.574,10.998 37.7087,10.9603 37.7608,10.9386 C37.8131,10.9169 37.9348,10.8482 37.9348,10.6782 L37.9348,2.0719 C37.9348,1.9166 37.8084,1.7901 37.6531,1.7901 L29.0468,1.7901 C28.8768,1.7901 28.8081,1.9119 28.7863,1.9642 C28.7647,2.0165 28.7272,2.1511 28.8474,2.2712 L31.441,4.8649 C31.598,5.0218 31.598,5.2764 31.441,5.4333 L16.3506,20.5239 Z M19.703,22.5627 C18.1761,22.5627 16.6493,21.9816 15.4869,20.8191 C15.4115,20.7438 15.3691,20.6415 15.3691,20.535 C15.3691,20.4283 15.4115,20.3261 15.4869,20.2507 L30.5883,5.1491 L28.2789,2.8397 C27.9625,2.5233 27.8724,2.0699 28.0436,1.6563 C28.2149,1.243 28.5992,0.9861 29.0468,0.9861 L37.6531,0.9861 C38.2518,0.9861 38.7388,1.4732 38.7388,2.0719 L38.7388,10.6782 C38.7388,11.1258 38.482,11.5101 38.0685,11.6814 C37.6557,11.8527 37.2017,11.7625 36.8853,11.4461 L35.0888,9.6496 L23.9192,20.8191 C22.7567,21.9816 21.23,22.5627 19.703,22.5627 L19.703,22.5627 Z" id="Fill-34" fill="#0A0B09"></path>
            </g>
        </g>
    </g>
</svg>