<?xml version="1.0" encoding="UTF-8"?>
<svg width="40px" height="40px" viewBox="0 0 40 40" version="1.1" xmlns="http://www.w3.org/2000/svg" xmlns:xlink="http://www.w3.org/1999/xlink">
    <!-- Generator: Sketch 62 (91390) - https://sketch.com -->
    <title>Agua_40x40</title>
    <desc>Created with Sketch.</desc>
    <g id="Agua_40x40" stroke="none" stroke-width="1" fill="none" fill-rule="evenodd">
        <g id="Cambioclimatico/agua" transform="translate(0.000000, 3.000000)">
            <g id="shutterstock_360313658-(1)" transform="translate(0.000000, 0.000000)">
                <path d="M20.1726667,33.9084762 C15.3540952,33.9084762 10.8193333,33.4042857 7.40361905,32.4888571 C4.87990476,31.8124762 1.87161905,30.6101905 1.87161905,28.7234286 C1.87161905,26.8746667 4.93247619,25.2741905 10.2691429,24.3321905 C10.4779048,24.2962857 10.676,24.4345714 10.7127619,24.6426667 C10.7495238,24.8510476 10.6104762,25.0495238 10.4022857,25.0862857 C5.6852381,25.9187619 2.63742857,27.3465714 2.63742857,28.7234286 C2.63742857,29.7850476 4.4932381,30.9160952 7.60180952,31.7492381 C10.9547619,32.648 15.4191429,33.1427619 20.1726667,33.1427619 C24.926381,33.1427619 29.3908571,32.648 32.7435238,31.7492381 C35.852,30.9160952 37.7079048,29.7850476 37.7079048,28.7234286 C37.7079048,27.3545714 34.6895238,25.9320952 30.0182857,25.0998095 C29.8100952,25.0627619 29.6714286,24.8638095 29.7085714,24.6558095 C29.745619,24.4477143 29.9442857,24.3078095 30.1526667,24.346 C35.4407619,25.2881905 38.473619,26.883619 38.473619,28.7234286 C38.473619,30.6101905 35.4654286,31.8124762 32.9419048,32.4888571 C29.5260952,33.4042857 24.9913333,33.9084762 20.1726667,33.9084762" id="Fill-22" fill="#000000"></path>
                <path d="M20.1726667,31.1846667 C14.8904762,31.1846667 7.03190476,30.3765714 7.03190476,28.150381 C7.03190476,27.1930476 8.45390476,26.4231429 11.258381,25.862381 C11.4662857,25.8210476 11.6674286,25.9554286 11.7087619,26.1625714 C11.7502857,26.3699048 11.6159048,26.571619 11.4084762,26.6131429 C8.55238095,27.1844762 7.79771429,27.8684762 7.79771429,28.150381 C7.79771429,28.4226667 8.51495238,29.0861905 11.2294286,29.6504762 C13.6142857,30.146 16.7902857,30.4189524 20.1726667,30.4189524 C23.5550476,30.4189524 26.7311429,30.146 29.1158095,29.6504762 C31.8302857,29.086381 32.5473333,28.4226667 32.5473333,28.150381 C32.5473333,27.8772381 31.827619,27.2117143 29.1034286,26.6475238 C28.8962857,26.6047619 28.7632381,26.4020952 28.8061905,26.1951429 C28.8489524,25.988 29.051619,25.854912 29.2585714,25.8979048 C31.9489524,26.4549524 33.3130476,27.2128571 33.3130476,28.150381 C33.3130476,30.3765714 25.4545714,31.1846667 20.1726667,31.1846667" id="Fill-23" fill="#000000"></path>
                <path d="M29.2758095,19.3341905 C29.2758095,24.307619 25.2440952,28.3393333 20.2707619,28.3393333 C15.2972381,28.3393333 11.2657143,24.307619 11.2657143,19.3341905 C11.2657143,14.3608571 20.2707619,1.99038095 20.2707619,1.99038095 C20.2707619,1.99038095 29.2758095,14.3608571 29.2758095,19.3341905" id="Fill-24" fill="#65D0D9"></path>
                <path d="M29.2758095,19.3341905 C29.2758095,24.307619 25.2440952,28.3393333 20.2707619,28.3393333 C15.2972381,28.3393333 11.2657143,24.307619 11.2657143,19.3341905 C11.2657143,14.3608571 20.2707619,1.99038095 20.2707619,1.99038095 C20.2707619,1.99038095 29.2758095,14.3608571 29.2758095,19.3341905" id="Fill-25" fill="#65D0D9"></path>
                <path d="M20.2707619,1.99038095 C20.2707619,1.99038095 19.652,2.84066667 18.7393333,4.18380952 C21.3094286,7.96628571 26.2128571,15.664 26.2128571,19.3341905 C26.2128571,23.7853333 22.9827619,27.4794286 18.7393333,28.2070476 C19.2373333,28.2922857 19.748381,28.3393333 20.2707619,28.3393333 C25.2440952,28.3393333 29.2758095,24.307619 29.2758095,19.3341905 C29.2758095,14.3608571 20.2707619,1.99038095 20.2707619,1.99038095" id="Fill-26" fill="#5CBDC5"></path>
                <path d="M20.2707619,1.99038095 C20.2707619,1.99038095 19.9409524,2.44352381 19.4093333,3.20847619 C21.6612381,6.44904762 27.5529524,15.3110476 27.5529524,19.3341905 C27.5529524,24.014 23.9829524,27.8587619 19.4180952,28.2967619 C19.6988571,28.323619 19.9828571,28.3393333 20.2707619,28.3393333 C25.2440952,28.3393333 29.2758095,24.307619 29.2758095,19.3341905 C29.2758095,14.3608571 20.2707619,1.99038095 20.2707619,1.99038095" id="Fill-27" fill="#53AAB2"></path>
                <path d="M20.2707619,2.64866667 C18.6944762,4.87304762 11.6486667,15.056381 11.6486667,19.3341905 C11.6486667,24.0886667 15.5165714,27.9564762 20.2707619,27.9564762 C25.0250476,27.9564762 28.8929524,24.0886667 28.8929524,19.3341905 C28.8929524,15.0555238 21.8471429,4.87304762 20.2707619,2.64866667 Z M20.2707619,28.7222857 C15.0942857,28.7222857 10.8828571,24.5106667 10.8828571,19.3341905 C10.8828571,14.2941905 19.5905714,2.27428571 19.9611429,1.76504762 C20.0332381,1.666 20.148381,1.60752381 20.2707619,1.60752381 C20.3932381,1.60752381 20.5082857,1.666 20.580381,1.76504762 C20.9509524,2.27428571 29.6586667,14.2941905 29.6586667,19.3341905 C29.6586667,24.5106667 25.4473333,28.7222857 20.2707619,28.7222857 L20.2707619,28.7222857 Z" id="Fill-28" fill="#000000"></path>
                <path d="M19.026381,8.37209524 C18.938,8.37209524 18.8486667,8.34761905 18.7687619,8.29647619 C18.5461905,8.15390476 18.4812381,7.85790476 18.6238095,7.63533333 C18.7120952,7.49742857 18.800381,7.36 18.8887619,7.22333333 C19.032381,7.00133333 19.3284762,6.93780952 19.5505714,7.08133333 C19.7724762,7.22495238 19.836,7.52133333 19.6924762,7.7432381 C19.6047619,7.87866667 19.5173333,8.01495238 19.4299048,8.15152381 C19.3384762,8.29409524 19.1840952,8.37209524 19.026381,8.37209524" id="Fill-29" fill="#FFFFFF"></path>
                <path d="M14.0042857,17.7885714 C13.9518095,17.7885714 13.8984762,17.7799048 13.8460952,17.761619 C13.5966667,17.6741905 13.4652381,17.4011429 13.5526667,17.151619 C14.4027619,14.7247619 16.2110476,11.5469524 17.5781905,9.30828571 C17.716,9.08266667 18.010381,9.01190476 18.2360952,9.14933333 C18.4617143,9.28714286 18.5328571,9.58161905 18.3951429,9.80733333 C17.052,12.0062857 15.278381,15.1204762 14.456,17.4681905 C14.3869524,17.6651429 14.2019048,17.7885714 14.0042857,17.7885714" id="Fill-30" fill="#FFFFFF"></path>
            </g>
        </g>
    </g>
</svg>