<?xml version="1.0" encoding="UTF-8"?>
<svg width="40px" height="40px" viewBox="0 0 40 40" version="1.1" xmlns="http://www.w3.org/2000/svg" xmlns:xlink="http://www.w3.org/1999/xlink">
    <!-- Generator: Sketch 62 (91390) - https://sketch.com -->
    <title>NivelMar_40x40</title>
    <desc>Created with Sketch.</desc>
    <g id="NivelMar_40x40" stroke="none" stroke-width="1" fill="none" fill-rule="evenodd">
        <g id="shutterstock_1668204082" transform="translate(1.000000, 1.000000)">
            <path d="M1.39504762,13.9642857 L18.9980952,13.9642857 C18.9980952,13.9642857 14.7484762,9.61980952 10.0501905,9.61980952 C6.03790476,9.61980952 2.30285714,12.787619 1.29685714,13.7131429 C1.19980952,13.8024762 1.26342857,13.9642857 1.39504762,13.9642857" id="Fill-11" fill="#4CAF50"></path>
            <path d="M10.0501905,9.61980952 C9.69009524,9.61980952 9.33257143,9.64542857 8.9787619,9.69266667 C13.2324762,10.2607619 16.8552381,13.9642857 16.8552381,13.9642857 L18.9980952,13.9642857 C18.997619,13.9642857 14.7484762,9.61980952 10.0501905,9.61980952" id="Fill-12" fill="#43A047"></path>
            <path d="M6.55095238,1.49742857 L18.9977026,13.9642857 C18.9977026,13.9642857 19.0604762,7.88247619 15.7380952,4.55504762 C12.9010476,1.71352381 8.02304762,1.308 6.65847619,1.25 C6.52714286,1.24438095 6.45761905,1.404 6.55095238,1.49742857" id="Fill-13" fill="#4CAF50"></path>
            <path d="M15.7380952,4.55504762 C12.9010476,1.71352381 8.02304762,1.308 6.65847619,1.25 C6.54761905,1.24552381 6.48247619,1.35752381 6.51971429,1.44904762 C8.60152381,1.76485714 11.6019048,2.5587619 13.5952381,4.55504762 C15.5948571,6.558 16.3679048,9.558 16.6671429,11.6294286 L18.9977026,13.9642857 C18.9977026,13.9642857 19.0604762,7.88247619 15.7380952,4.55504762" id="Fill-14" fill="#43A047"></path>
            <path d="M31.4447619,1.49742857 L18.9980135,13.9642857 C18.9980135,13.9642857 18.9357143,7.88247619 22.257619,4.55504762 C25.0947619,1.71352381 29.9728571,1.308 31.337619,1.25 C31.4685714,1.24438095 31.5380952,1.404 31.4447619,1.49742857" id="Fill-15" fill="#4CAF50"></path>
            <path d="M31.337619,1.25 C30.3814286,1.29057143 27.702381,1.50190476 25.2085714,2.60085714 C26.4547619,2.35752381 27.4985714,2.28380952 28.0228571,2.26152381 C28.1542857,2.256 28.2238095,2.41514286 28.1304762,2.50857143 L19.2147619,11.4389524 C18.9871429,12.909619 18.9980108,13.9642857 18.9980108,13.9642857 L31.4447619,1.49742857 C31.5380952,1.404 31.4685714,1.24438095 31.337619,1.25" id="Fill-16" fill="#43A047"></path>
            <path d="M18.997619,13.9642857 L36.6047619,13.9642857 C36.7357143,13.9642857 36.8,13.803619 36.7038095,13.7139048 C35.7142857,12.7894286 32.0285714,9.61980952 28.0152381,9.61980952 C23.3171429,9.61980952 18.997619,13.9642857 18.997619,13.9642857" id="Fill-17" fill="#4CAF50"></path>
            <path d="M36.7038095,13.7139048 C35.7142857,12.7894286 32.0285714,9.61980952 28.0152381,9.61980952 C27.6552381,9.61980952 27.2966667,9.64542857 26.9428571,9.69266667 C30.5252381,10.1707619 33.66,12.872381 34.5609524,13.7139048 C34.6571429,13.803619 34.5928571,13.9642857 34.4619048,13.9642857 L36.6047619,13.9642857 C36.7357143,13.9642857 36.8,13.803619 36.7038095,13.7139048" id="Fill-18" fill="#43A047"></path>
            <path d="M30.1428571,30.8571429 L7.85714286,30.8571429 L7.85714286,28.5714286 C7.85714286,27.1514286 9.00857143,26 10.4285714,26 L27.5714286,26 C28.9914286,26 30.1428571,27.1514286 30.1428571,28.5714286 L30.1428571,30.8571429" id="Fill-19" fill="#F2AC57"></path>
            <path d="M27.5714286,26 L25.4285714,26 C26.8485714,26 28,27.1514286 28,28.5714286 L28,30.8571429 L30.1428571,30.8571429 L30.1428571,28.5714286 C30.1428571,27.1514286 28.9914286,26 27.5714286,26" id="Fill-20" fill="#E39E4B"></path>
            <path d="M21.1428571,26 L16.8571429,26 L16.8571429,13.4285714 C16.8571429,12.2451429 17.8166667,11.2857143 19,11.2857143 C20.1833333,11.2857143 21.1428571,12.2451429 21.1428571,13.4285714 L21.1428571,26" id="Fill-21" fill="#BF6724"></path>
            <path d="M19,11.2857143 C18.6095238,11.2857143 18.2438095,11.3906667 17.9285714,11.5729524 C18.5690476,11.9438095 19,12.6354286 19,13.4285714 L19,26 L21.1428571,26 L21.1428571,13.4285714 C21.1428571,12.2451429 20.1833333,11.2857143 19,11.2857143" id="Fill-22" fill="#A35418"></path>
            <path d="M36.75,29.1071429 C35.2704762,29.1071429 35.2704762,30.3419048 33.7914286,30.3419048 C32.3119048,30.3419048 32.3119048,29.1071429 30.832381,29.1071429 C29.3528571,29.1071429 29.3528571,30.3419048 27.8742857,30.3419048 C26.3947619,30.3419048 26.3947619,29.1071429 24.9157143,29.1071429 C23.4361905,29.1071429 23.4361905,30.3419048 21.9571429,30.3419048 C20.4780952,30.3419048 20.4780952,29.1071429 18.9990476,29.1071429 C17.52,29.1071429 17.52,30.3419048 16.0409524,30.3419048 C14.5617143,30.3419048 14.5617143,29.1071429 13.0829524,29.1071429 C11.6038095,29.1071429 11.6038095,30.3419048 10.1246667,30.3419048 C8.64542857,30.3419048 8.64542857,29.1071429 7.16628571,29.1071429 C5.68714286,29.1071429 5.68714286,30.3419048 4.208,30.3419048 C2.72914286,30.3419048 2.72914286,29.1071429 1.25,29.1071429 L1.25,34.6133333 C1.25,35.7933333 2.20942857,36.75 3.39285714,36.75 L34.6071429,36.75 C35.7904762,36.75 36.75,35.7933333 36.75,34.6133333 L36.75,29.1071429" id="Fill-23" fill="#65D0D9"></path>
            <g id="Group-27" transform="translate(0.714286, 0.714286)">
                <path d="M33.8928571,29.4638095 L33.8928571,33.8990476 C33.8928571,35.0790476 32.9333333,36.0357143 31.75,36.0357143 L33.8928571,36.0357143 C35.0761905,36.0357143 36.0357143,35.0790476 36.0357143,33.8990476 L36.0357143,28.3928571 C34.8938095,28.3928571 34.6328571,29.1285714 33.8928571,29.4638095" id="Fill-24" fill="#53AAB2"></path>
                <path d="M35.4995238,33.8990476 C35.4995238,34.7819048 34.7785714,35.5 33.892381,35.5 L2.67857143,35.5 C1.79238095,35.5 1.07142857,34.7819048 1.07142857,33.8990476 L1.07142857,29.0195238 C1.72619048,29.2752381 2.10561905,30.1638095 3.49409524,30.1638095 C5.17561905,30.1638095 5.26933333,28.9285714 6.452,28.9285714 C7.62685714,28.9285714 7.7347619,30.1638095 9.41038095,30.1638095 C11.0915238,30.1638095 11.186,28.9285714 12.3686667,28.9285714 C13.5435238,28.9285714 13.6510476,30.1638095 15.3266667,30.1638095 C17.0080952,30.1638095 17.1019048,28.9285714 18.2847619,28.9285714 C19.46,28.9285714 19.5671429,30.1638095 21.2428571,30.1638095 C22.9242857,30.1638095 23.0185714,28.9285714 24.2014286,28.9285714 C25.3761905,28.9285714 25.4838095,30.1638095 27.1595238,30.1638095 C28.8409524,30.1638095 28.9352381,28.9285714 30.1180952,28.9285714 C31.2933333,28.9285714 31.4009524,30.1638095 33.0766667,30.1638095 C34.4647619,30.1638095 34.847619,29.2742857 35.4995238,29.0195238 L35.4995238,33.8990476 Z M16.6785714,24.75 L19.8928571,24.75 L19.8928571,22.1785714 L16.6785714,22.1785714 L16.6785714,24.75 Z M14.644381,4.21952381 C16.2985714,5.87609524 17.0695238,8.28647619 17.4290476,10.1766667 C17.0852381,10.2927619 16.7728571,10.4765714 16.5071429,10.7127619 L6.95761905,1.14771429 C8.91409524,1.34857143 12.4430476,2.01485714 14.644381,4.21952381 Z M19.8928571,12.712381 L19.8928571,15.3214286 L16.6785714,15.3214286 L16.6785714,12.712381 C16.6785714,11.8206667 17.4071429,11.1071429 18.2880952,11.1071429 C19.172381,11.1071429 19.8928571,11.8277143 19.8928571,12.712381 Z M34.8514286,12.7142857 L20.9642857,12.7142857 L20.9642857,12.712381 C20.9642857,12.4151429 20.9147619,12.1298095 20.8252381,11.8627619 C22.4819048,10.7042857 24.8514286,9.44085714 27.3014286,9.44085714 C30.4152381,9.44085714 33.3471429,11.4702857 34.8514286,12.7142857 Z M16.6785714,21.1071429 L19.8928571,21.1071429 L19.8928571,19.2857143 L16.6785714,19.2857143 L16.6785714,21.1071429 Z M16.6785714,18.2142857 L19.8928571,18.2142857 L19.8928571,16.3928571 L16.6785714,16.3928571 L16.6785714,18.2142857 Z M36.0352381,27.8571429 C34.3538095,27.8571429 34.2595238,29.092381 33.0766667,29.092381 C31.9014286,29.092381 31.7933333,27.8571429 30.1180952,27.8571429 C30.0652381,27.8571429 30.0142857,27.8590476 29.9638095,27.8614286 L29.9638095,27.8571429 C29.9638095,26.1438095 28.5704762,24.75 26.8571429,24.75 L25.1166667,24.75 C24.8204762,24.75 24.5809524,24.99 24.5809524,25.2857143 C24.5809524,25.5814286 24.8204762,25.8214286 25.1166667,25.8214286 L26.8571429,25.8214286 C27.9795238,25.8214286 28.8928571,26.7347619 28.8928571,27.8571429 L28.8928571,28.1642857 C28.172381,28.5719048 28.0047619,29.092381 27.1595238,29.092381 C25.9847619,29.092381 25.8766667,27.8571429 24.2014286,27.8571429 C22.5195238,27.8571429 22.4261905,29.092381 21.2428571,29.092381 C20.0680952,29.092381 19.96,27.8571429 18.2847619,27.8571429 C16.6028571,27.8571429 16.5095238,29.092381 15.3266667,29.092381 C14.1518095,29.092381 14.0439048,27.8571429 12.3686667,27.8571429 C10.6867619,27.8571429 10.5933333,29.092381 9.41038095,29.092381 C8.5692381,29.092381 8.39285714,28.57 7.67857143,28.1652381 L7.67857143,27.8571429 C7.67857143,26.7347619 8.59190476,25.8214286 9.71428571,25.8214286 L22.8642857,25.8214286 C23.16,25.8214286 23.4,25.5814286 23.4,25.2857143 C23.4,24.99 23.16,24.75 22.8642857,24.75 L20.9642857,24.75 L20.9642857,13.7857143 L35.8904762,13.7857143 C36.172381,13.7857143 36.4209524,13.6160952 36.5238095,13.3534286 C36.6266667,13.0915238 36.5595238,12.798381 36.3547619,12.6090476 C35.2914286,11.6141905 31.4952381,8.36942857 27.3014286,8.36942857 C25.7147619,8.36942857 24.1780952,8.83295238 22.817619,9.46685714 L31.1080952,1.16333333 C31.3085714,0.963904762 31.3652381,0.667428571 31.2519048,0.407714286 C31.1385714,0.148095238 30.882381,-0.0119047619 30.6,0.000761904762 C29.4157143,0.050952381 26.37,0.315428571 23.667619,1.68485714 C23.4033333,1.81885714 23.2980952,2.14095238 23.4314286,2.40514286 C23.5652381,2.66885714 23.887619,2.77457143 24.1514286,2.64066667 C26.0814286,1.66295238 28.2628571,1.29095238 29.607619,1.14952381 L20.0619048,10.7109524 C19.7957143,10.4750476 19.482381,10.291619 19.1380952,10.176 C19.497619,8.28647619 20.2680952,5.87685714 21.9228571,4.21952381 C22.0519048,4.09 22.1895238,3.96209524 22.3319048,3.83961905 C22.5561905,3.64695238 22.5819048,3.30838095 22.3885714,3.08409524 C22.1961905,2.85971429 21.857619,2.83447619 21.6333333,3.02752381 C21.4704762,3.16742857 21.312381,3.314 21.1642857,3.46238095 C19.5861905,5.04314286 18.7390476,7.19342857 18.2833333,9.06209524 C17.827619,7.19266667 16.9804762,5.04238095 15.4025714,3.46238095 C12.4404762,0.495904762 7.43152381,0.0628571429 5.96761905,0.000761904762 C5.68561905,-0.0119047619 5.43009524,0.147714286 5.31619048,0.406285714 C5.20238095,0.665142857 5.25780952,0.962095238 5.45761905,1.16142857 L13.701619,9.41885714 C12.3772381,8.80990476 10.8839048,8.36942857 9.33590476,8.36942857 C5.15028571,8.36942857 1.30057143,11.6108571 0.220571429,12.6041905 C0.0126666667,12.7954286 -0.0554285714,13.0889524 0.0472380952,13.3522857 C0.149904762,13.6157143 0.39847619,13.7857143 0.681142857,13.7857143 L4.57552381,13.7857143 C4.8712381,13.7857143 5.1112381,13.5457143 5.1112381,13.25 C5.1112381,12.9542857 4.8712381,12.7142857 4.57552381,12.7142857 L1.73142857,12.7142857 C3.25704762,11.4705714 6.22466667,9.44085714 9.33590476,9.44085714 C11.7786667,9.44085714 14.1182857,10.6960952 15.7507619,11.8485714 C15.6580952,12.1198095 15.6071429,12.41 15.6071429,12.7120952 L15.6071429,12.7142857 L6.84780952,12.7142857 C6.55209524,12.7142857 6.31209524,12.9542857 6.31209524,13.25 C6.31209524,13.5457143 6.55209524,13.7857143 6.84780952,13.7857143 L15.6071429,13.7857143 L15.6071429,24.75 L9.71428571,24.75 C8.00114286,24.75 6.60714286,26.1438095 6.60714286,27.8571429 L6.60714286,27.8614286 C6.55695238,27.8585714 6.5052381,27.8571429 6.452,27.8571429 C4.77047619,27.8571429 4.67666667,29.0919048 3.49409524,29.0919048 C2.31885714,29.0919048 2.21133333,27.8571429 0.536095238,27.8571429 C0.240285714,27.8571429 6.64012827e-05,28.0971429 6.64012827e-05,28.3928571 L6.64012827e-05,33.8990476 C6.64012827e-05,35.372381 1.202,36.5714286 2.67895238,36.5714286 L33.892381,36.5714286 C35.3695238,36.5714286 36.5709524,35.372381 36.5709524,33.8990476 L36.5709524,28.3928571 C36.5709524,28.0971429 36.3309524,27.8571429 36.0352381,27.8571429 L36.0352381,27.8571429 Z" id="Fill-26" fill="#000000"></path>
            </g>
        </g>
    </g>
</svg>