<?xml version="1.0" encoding="UTF-8"?>
<svg width="40px" height="40px" viewBox="0 0 40 40" version="1.1" xmlns="http://www.w3.org/2000/svg" xmlns:xlink="http://www.w3.org/1999/xlink">
    <!-- Generator: Sketch 62 (91390) - https://sketch.com -->
    <title>CambioClimatico_40x40</title>
    <desc>Created with Sketch.</desc>
    <g id="CambioClimatico_40x40" stroke="none" stroke-width="1" fill="none" fill-rule="evenodd">
        <g id="Mundo_1">
            <g id="shutterstock_330303440">
                <path d="M24.0282546,17.2151727 C23.3682277,18.3462598 20.1275411,18.0303737 19.2254291,17.3807445 C18.5709402,16.9069718 18.5225683,16.4101434 17.6105107,16.2623155 C17.0983118,16.1783429 16.4409974,16.2114572 15.8856255,16.364371 L15.7429964,15.8929717 C16.4664265,15.679028 17.2001413,14.980801 17.8703398,14.8865438 C18.8461397,14.7515999 19.6460832,15.4546867 20.6089991,15.5107438 C21.4419439,15.5592287 22.634513,14.7872007 23.3987427,15.1642297 C23.9719715,15.4494879 24.3616585,16.6445433 24.0282546,17.2151727" id="Fill-48" fill="#65D0D9"></path>
                <path d="M13.8372819,8.53785407 C13.2004238,9.05231334 11.9265946,10.2905418 11.3711097,8.87148407 C11.0069648,7.94405594 11.9954228,6.63462598 12.4615102,5.66911069 C12.9378823,4.68822491 15.128968,4.01305361 16.2805114,4.17105319 C17.5951402,4.35199548 17.5110546,5.70222505 16.8231122,6.62445433 C16.117426,7.56973935 14.7443667,7.80651268 13.8372819,8.53785407" id="Fill-49" fill="#94CD85"></path>
                <path d="M4.83887829,16.7132585 C5.73059264,16.086459 6.79047821,18.1426008 6.01336441,18.9194886 C4.657936,20.2724306 3.99056297,17.30943 4.83887829,16.7132585" id="Fill-50" fill="#94CD85"></path>
                <path d="M6.99933602,34.5447199 C2.9535071,31.023861 0.39567705,25.8339479 0.39567705,20.0456029 C0.39567705,17.6356008 0.844133644,15.3324009 1.65164936,13.2051706 C1.44539097,14.3160274 1.41476301,15.4369429 1.62113442,16.5299428 C1.84536272,17.7246592 2.31664901,18.8686304 2.46707636,20.0787172 C2.5995338,21.1384898 2.32942007,22.0736032 2.27596242,23.1156318 C2.16882108,25.2557463 3.87076358,27.1054037 4.24270679,29.219976 C4.63770573,31.4719785 5.46816416,33.1460055 7.01967931,34.5216642 L6.99933602,34.5447199" id="Fill-51" fill="#65D0D9"></path>
                <path d="M38.7010807,22.7343646 C38.6938476,22.7843187 38.6893268,22.8344988 38.6823197,22.8842269 C38.6893268,22.8360811 38.6974642,22.7883874 38.7035671,22.7402416 C38.702889,22.7382072 38.7019849,22.736399 38.7010807,22.7343646" id="Fill-52" fill="#94CD85"></path>
                <path d="M38.2041393,24.92675 C38.3793177,24.2550823 38.517652,23.5653316 38.6191425,22.8666525 C38.5158438,23.567705 38.3771703,24.2571166 38.2006357,24.9311577 C38.2019919,24.9296885 38.2028961,24.9283323 38.2041393,24.92675" id="Fill-53" fill="#94CD85"></path>
                <path d="M27.539733,29.1135127 C26.6902875,29.2098043 25.8612983,31.3598644 25.9167903,32.5033835 C26.6207812,31.6777848 27.2604648,30.795112 27.8186621,29.8573992 L27.9649078,29.6336229 C27.9365402,29.294003 27.8097337,29.0829978 27.539733,29.1135127" id="Fill-54" fill="#94CD85"></path>
                <path d="M37.2560288,12.4227449 C37.2555767,12.4219538 37.2555767,12.4212757 37.2555767,12.4204846 C36.6251607,10.9637918 35.8187752,9.60271244 34.8647877,8.36018931 C35.8183231,9.60271244 36.6242566,10.9636787 37.2546726,12.4196934 C37.2551247,12.4207106 37.2555767,12.4217278 37.2560288,12.4227449" id="Fill-55" fill="#94CD85"></path>
                <path d="M29.3645264,18.2895246 C29.7243766,18.5953521 30.1012926,19.1371618 30.5011514,19.7175108 C30.4576393,17.1279226 29.9048669,14.6628806 28.9340397,12.4196934 C28.2082362,10.7431801 27.249389,9.19177792 26.1007841,7.8035742 C25.457936,8.15234866 24.7996044,8.40505757 24.1044289,8.44088437 C23.6337077,8.46427916 23.1372183,8.3898001 22.6362082,8.31238257 C22.2953451,8.26163735 21.9522215,8.20806668 21.6127146,8.18150738 C21.5819736,8.179134 21.5519107,8.1778908 21.5212828,8.1760825 C21.4721198,8.17303101 21.4232959,8.17009253 21.374585,8.16828424 C20.8359398,8.15223564 20.3124391,8.2279579 19.8323374,8.51988416 C18.6855407,9.21551176 18.9299993,10.5147701 18.2219397,11.4498834 C18.0104824,11.7300558 17.8244543,11.9542841 17.4983966,12.1071979 C17.4979445,12.1052765 17.4974924,12.1035813 17.4970403,12.101773 C17.4837042,12.1084411 17.4735325,12.1170304 17.4598573,12.1235855 C17.2885216,11.2858939 16.4871089,10.6545737 15.7772409,10.9869605 C15.6263615,11.0656212 15.4800028,11.1857597 15.3455111,11.360599 C14.2372537,12.8 16.0131101,12.8714276 16.9071979,12.9095147 C16.7252384,13.2058487 16.1618422,13.6492195 15.6329166,14.1099951 C15.3863107,14.32586 15.1459207,14.5460196 14.9535636,14.7567988 C14.9308469,14.7821149 14.9085823,14.8073179 14.8872219,14.832295 C14.8825881,14.8374938 14.8779544,14.8429187 14.8734336,14.8481175 C14.4834075,15.3118316 14.3781875,15.7168892 15.0397966,15.913315 C15.2715971,15.9820301 15.505997,15.9616868 15.7429964,15.8929717 C16.4664265,15.679028 17.2001413,14.980801 17.8703398,14.8865438 C18.8461397,14.7515999 19.6460832,15.4546867 20.6089991,15.5107438 C21.4419439,15.5592287 22.634513,14.7872007 23.3987427,15.1642297 C23.9719715,15.4494879 24.3616585,16.6445433 24.0282546,17.2151727 C23.3682277,18.3462598 20.1275411,18.0303737 19.2254291,17.3807445 C18.5709402,16.9069718 18.5225683,16.4101434 17.6105107,16.2623155 C17.0983118,16.1783429 16.4409974,16.2114572 15.8856255,16.364371 C15.8777142,16.3664053 15.8705941,16.3694568 15.8627958,16.3717172 L15.8678816,16.3883309 C15.6719079,16.4429187 15.4913047,16.512538 15.3312707,16.5974147 C13.5887547,17.5261991 11.9897718,20.4459137 12.4776718,22.4393304 C12.4890867,22.4837466 12.503553,22.5270326 12.5171152,22.5704316 C12.5289821,22.609762 12.5394928,22.6496574 12.553055,22.6883097 C12.8815992,23.5912128 13.7052765,24.2542912 15.2359963,24.3640319 C16.3223282,24.4413364 17.2200325,24.5380801 17.8824327,24.9911704 C18.4111323,25.3397189 18.7955075,25.9072967 19.0115985,26.8621883 C19.4620894,28.8521014 18.5288974,31.8554496 19.823861,33.581465 C20.262711,34.1655435 20.7015611,34.4165572 21.1311436,34.4246945 C23.203221,34.3488592 25.0753691,28.7061948 25.6712015,27.6122907 C26.5529703,25.9944338 27.6483436,24.2263756 26.9554284,22.3282334 C26.9066045,22.2009748 26.1578583,21.0646888 26.1730028,21.0366603 C26.1757152,21.0315745 26.1801229,21.0307834 26.1831744,21.0269407 C26.1792188,21.0184644 26.1769584,21.0124744 26.1778625,21.0108921 C26.248386,20.8652116 26.5302536,21.1567988 26.7670269,21.1482094 C28.0202868,21.0895529 28.8595606,21.3463304 28.8786607,19.8975489 C28.8786607,19.8947235 28.8786607,19.8914459 28.8786607,19.8887335 C28.8794519,19.7978668 28.8773045,19.700332 28.8714276,19.5957901 C28.843512,19.1457512 28.6760189,18.6327612 28.5988274,18.2822914 C28.4804973,17.7778908 28.5243484,17.575023 29.3645264,18.2895246" id="Fill-56" fill="#94CD85"></path>
                <path d="M38.3924843,15.8283252 C38.4227732,15.9040598 38.4573568,15.9784975 38.4858374,16.0543618 C38.4573568,15.9784975 38.4227732,15.9040598 38.3924843,15.8283252" id="Fill-57" fill="#65D0D9"></path>
                <path d="M37.5743448,13.1286007 C37.6028255,13.2025147 37.6346966,13.2743943 37.6631772,13.3485343 C37.6346966,13.2743943 37.6028255,13.2025147 37.5743448,13.1286007" id="Fill-58" fill="#65D0D9"></path>
                <path d="M38.2253867,25.1097266 C38.2407572,25.0529915 38.2574839,24.9978385 38.2724023,24.9411033 C38.2699159,24.9442679 38.2681076,24.9469803 38.2653952,24.9499188 C38.2513809,25.0030374 38.2398531,25.0568341 38.2253867,25.1097266" id="Fill-59" fill="#65D0D9"></path>
                <path d="M38.1553719,14.8961503 C38.1892774,14.9717775 38.2290598,15.046278 38.260931,15.1221869 C38.2290598,15.046278 38.1892774,14.9717775 38.1553719,14.8961503" id="Fill-60" fill="#65D0D9"></path>
                <path d="M38.6758211,22.7182595 C38.7113089,22.5937134 38.7379812,22.467924 38.7680441,22.3426997 C38.7379812,22.4670198 38.7076923,22.591566 38.6733347,22.715321 C38.6742389,22.7163382 38.675143,22.7172424 38.6758211,22.7182595" id="Fill-61" fill="#65D0D9"></path>
                <path d="M38.891234,19.9581267 C38.8903299,19.8520025 38.8758635,19.7474606 38.8715688,19.6419015 C38.8767677,19.7602317 38.8894257,19.8775447 38.8903299,19.9964399 C38.8903299,19.9836689 38.891234,19.9708978 38.891234,19.9581267" id="Fill-62" fill="#65D0D9"></path>
                <path d="M38.8229145,18.6937911 C38.8360246,18.7873702 38.8563679,18.8799322 38.8672176,18.9738504 C38.8563679,18.8799322 38.8360246,18.7873702 38.8229145,18.6937911" id="Fill-63" fill="#65D0D9"></path>
                <path d="M37.8795508,13.992117 C37.9141344,14.067899 37.9539168,14.1422079 37.9875962,14.2181536 C37.9539168,14.1422079 37.9141344,14.067899 37.8795508,13.992117" id="Fill-64" fill="#65D0D9"></path>
                <path d="M38.8812884,20.4522427 C38.8776718,20.5313555 38.8776718,20.6104683 38.872473,20.6891291 C38.8776718,20.6104683 38.8776718,20.5313555 38.8812884,20.4522427" id="Fill-65" fill="#65D0D9"></path>
                <path d="M36.54051,29.2519602 C36.5488733,29.2460832 36.5558805,29.2394151 36.559045,29.2301476 C36.9270326,28.4566504 37.1189376,28.0478632 37.2976196,27.5859575 C37.6504627,26.7560641 37.943067,25.8972381 38.1793883,25.0151303 C37.9359469,25.9266229 37.6288762,26.8121212 37.2595324,27.6652963 C37.0848061,28.1161263 36.8955005,28.5162111 36.54051,29.2519602" id="Fill-66" fill="#65D0D9"></path>
                <path d="M38.7279226,17.7351699 C38.7475878,17.8149608 38.7722258,17.8938476 38.7900826,17.9740906 C38.7722258,17.8938476 38.7475878,17.8149608 38.7279226,17.7351699" id="Fill-67" fill="#65D0D9"></path>
                <path d="M11.3168609,8.91782157 C10.9481952,7.99208872 11.9302112,6.67802501 12.3918909,5.71002331 C12.8632902,4.72687716 15.0510984,4.04108215 16.2033199,4.19354383 C17.5188529,4.36804408 17.4414353,5.7186127 16.7580137,6.64423254 C16.0568482,7.5929081 14.6849191,7.83634951 13.7814509,8.57187257 C13.1469662,9.0897224 11.8791269,10.3341668 11.3168609,8.91782157 Z M6.00805255,18.9917073 C4.6591792,20.3510913 3.97745285,17.3913682 4.8228297,16.7912411 C5.71149255,16.1601469 6.78132373,18.2109769 6.00805255,18.9917073 Z M19.6127428,39.2642509 C18.1855478,39.2642509 16.7965529,39.103991 15.4578512,38.8086742 C19.6096913,37.8902875 23.2528361,35.6269831 25.9167903,32.5033835 C25.8612983,31.3598644 26.6902875,29.2098043 27.539733,29.1135127 C27.8097337,29.0829978 27.9365402,29.294003 27.9649078,29.6336229 L28.15783,29.3387582 C28.1741047,29.3294907 28.188345,29.3205623 28.1932048,29.3073391 C28.5660521,28.534181 28.7597655,28.1276542 28.9388995,27.6652963 C29.3081303,26.810991 29.6157661,25.9242495 29.8596595,25.0115137 C30.0516776,24.2915872 30.2005227,23.5541428 30.3082291,22.8035883 C30.4382002,21.9024935 30.5095147,20.9826376 30.5095147,20.0458289 C30.5095147,19.9513456 30.5038638,19.8582185 30.5025076,19.7641873 C30.1052483,19.1819171 29.7311577,18.6385251 29.3728897,18.3310023 C28.5576888,17.6305149 28.4937204,17.8055803 28.5988274,18.2822914 C28.682574,18.638073 28.8470156,19.1434909 28.8714276,19.5836971 C28.8714276,19.5879918 28.8714276,19.5914954 28.8714276,19.5957901 C28.8718796,19.6047185 28.8732359,19.613873 28.8736879,19.6228014 C28.8786607,19.7181889 28.8791128,19.8047609 28.8786607,19.8887335 C28.8786607,19.8914459 28.8786607,19.8948365 28.8786607,19.8975489 C28.8656636,21.387017 28.0257117,21.1239104 26.7617151,21.176916 C26.532966,21.1841492 26.2660168,20.9152787 26.1831744,21.0269407 C26.2471428,21.1649361 26.9200537,22.1785972 26.9666172,22.2985096 C27.6683478,24.1933743 26.5816769,25.9666313 25.7079325,27.5887829 C25.1104047,28.6978315 23.2311365,34.4658332 21.1311436,34.4246945 C20.6794095,34.4414212 20.2179558,34.1943632 19.7578583,33.5763792 C18.4715971,31.8439217 19.4194815,28.8453203 18.9785972,26.8530338 C18.7700784,25.9112524 18.3973441,25.3434485 17.8824327,24.9911704 C17.2202585,24.5548068 16.3311436,24.4624709 15.2570177,24.3912693 C13.7034682,24.2875185 12.8762873,23.6098608 12.553055,22.6883097 C12.5391538,22.6498834 12.5293212,22.6095359 12.5171152,22.5704316 C12.5040051,22.5268065 12.4887476,22.4840856 12.4776718,22.4393304 C11.9668291,20.4427492 13.5889807,17.4972664 15.3479975,16.5707424 C15.5020414,16.4900473 15.6757505,16.4241577 15.8627958,16.3717172 L15.7227661,15.9178357 C15.4862188,15.987794 15.2520449,16.0093805 15.0196793,15.9416826 C14.3434909,15.7445787 14.4657766,15.3256198 14.8734336,14.8481175 C14.8777283,14.8429187 14.8827011,14.8374938 14.8872219,14.832295 C14.9089214,14.8073179 14.9303949,14.7823409 14.9535636,14.7567988 C15.1437734,14.5464717 15.3842763,14.3264251 15.6329166,14.1099951 C16.1511055,13.6558875 16.6950625,13.2205411 16.8726143,12.9288409 C15.9781875,12.8950484 14.2019919,12.8322102 15.3033552,11.3873843 C15.450166,11.1945751 15.611104,11.0648301 15.7772409,10.9869605 C16.4980716,10.6104966 17.3236703,11.2487109 17.4970403,12.101773 C17.797443,11.9480681 17.9788373,11.7320901 18.1801229,11.4626545 C18.8836618,10.5242636 18.6328742,9.22613548 19.7759412,8.525083 C20.2719785,8.22027266 20.8155965,8.14771491 21.374585,8.16828424 C21.4232959,8.16964046 21.4724589,8.17325705 21.5212828,8.1760825 C21.5519107,8.1778908 21.5819736,8.17890796 21.6127146,8.18150738 C21.9517694,8.20659744 22.294893,8.25960302 22.6362082,8.31238257 C23.1181182,8.38403617 23.5951685,8.45003885 24.0478067,8.42528784 C24.7527018,8.3855054 25.4184926,8.12251183 26.0675567,7.76311365 C25.3267218,6.87252949 24.5070001,6.04907819 23.6186763,5.30519178 C21.3010101,3.36478067 18.5187257,1.96211062 15.4632761,1.28501801 C13.2660874,1.76964046 11.2113018,2.63038779 9.36853853,3.79605849 C9.41272869,3.99214523 9.43951402,4.22903157 9.52947658,4.40172353 C9.76591086,4.84893692 10.483238,5.67860422 10.6179558,6.12898213 C10.9391538,7.21508794 10.1302818,6.94395705 9.62938476,7.6954157 C9.02247651,8.61041181 9.61650067,8.68647312 10.0460832,9.56338207 C10.4860634,10.4581479 9.95985025,12.2541216 8.92833227,12.8094935 C8.27779897,13.1617716 7.86968991,12.5523769 7.20480328,12.5504556 C6.09134704,12.5455958 5.74381578,13.39312 5.23851098,14.2594052 C4.72812036,15.1356361 4.64719927,15.2506887 3.85618422,15.511987 C3.3500883,15.6772197 3.47395635,14.9709684 3.00029667,15.5719997 C2.668701,15.993897 2.99441972,18.5172565 3.09398884,19.0644911 C3.34002967,20.4442184 4.7178357,20.8578654 5.72844529,21.714092 C7.271032,23.0186621 9.44505192,24.7786961 9.92391043,26.8400367 C10.2907678,28.422858 9.06338914,29.5550752 8.41500318,30.8929858 C7.6052271,32.5656566 8.17755174,33.9413153 8.57322879,35.6718514 C8.01876104,35.3306491 7.52521014,34.971138 7.09020273,34.588571 L7.07008547,34.6116268 C10.4599562,37.535297 14.8812319,39.2947658 19.706322,39.2714907 C26.7254362,39.2371265 32.8467331,35.4397118 36.1729745,29.8059758 L36.139295,29.8573992 C32.7890937,35.4884227 26.6425938,39.2642509 19.6127428,39.2642509 L19.6127428,39.2642509 Z" id="Fill-68" fill="#65D0D9"></path>
                <path d="M38.8239316,21.7348873 C38.8024581,21.8528784 38.7839231,21.9712086 38.7592852,22.0884086 C38.7839231,21.9710956 38.8024581,21.8528784 38.8239316,21.7348873" id="Fill-69" fill="#65D0D9"></path>
                <path d="M38.5842198,16.778131 C38.6093099,16.8537968 38.6393727,16.9283816 38.6624285,17.0041675 C38.6393727,16.9283816 38.6093099,16.8537968 38.5842198,16.778131" id="Fill-70" fill="#65D0D9"></path>
                <path d="M38.8618493,21.1075228 C38.8503214,21.20178 38.8430882,21.2966024 38.8299781,21.3904076 C38.8430882,21.2966024 38.8503214,21.20178 38.8618493,21.1075228" id="Fill-71" fill="#65D0D9"></path>
                <path d="M28.9287619,19.6228014 C28.9278578,19.613873 28.9251453,19.6047185 28.9242412,19.5957901 C28.9359951,19.700332 28.9402898,19.7978668 28.9387075,19.8887335 C28.9396117,19.8047609 28.9387075,19.7181889 28.9287619,19.6228014" id="Fill-72" fill="#65D0D9"></path>
                <path d="M29.3645264,18.2895246 C28.5243484,17.575023 28.4804973,17.7778908 28.5988274,18.2822914 C28.4937204,17.8055803 28.5576888,17.6305149 29.3728897,18.3310023 C29.7311577,18.6385251 30.1052483,19.1819171 30.5025076,19.7641873 C30.5025076,19.7484778 30.5016034,19.7331073 30.5011514,19.7175108 C30.1012926,19.1371618 29.7243766,18.5953521 29.3645264,18.2895246" id="Fill-73" fill="#65D0D9"></path>
                <path d="M21.6127146,8.18150738 C21.9522215,8.22737836 22.2953451,8.31990111 22.6362082,8.40754397 C22.294893,8.31638759 21.9517694,8.22484082 21.6127146,8.18150738" id="Fill-74" fill="#65D0D9"></path>
                <path d="M19.823861,33.581465 C18.5288974,31.8554496 19.4620894,28.8521014 19.0115985,26.8621883 C18.7955075,25.9072967 18.4111323,25.3397189 17.8824327,24.9911704 C18.3973441,25.3434485 18.7700784,25.9112524 18.9785972,26.8530338 C19.4194815,28.8453203 18.4715971,31.8439217 19.7578583,33.5763792 C20.2179558,34.1943632 20.6794095,34.4414212 21.1311436,34.4246945 C20.7015611,34.4165572 20.262711,34.1655435 19.823861,33.581465" id="Fill-75" fill="#65D0D9"></path>
                <path d="M17.4598573,12.1235855 C17.4735325,12.1170304 17.4837042,12.1084411 17.4970403,12.101773 C17.3236703,11.2487109 16.4980716,10.6104966 15.7772409,10.9869605 C16.4871089,10.6545737 17.2885216,11.2858939 17.4598573,12.1235855" id="Fill-76" fill="#65D0D9"></path>
                <path d="M15.3312707,16.5974147 C15.4913047,16.512538 15.6719079,16.4429187 15.8678816,16.3883309 L15.8627958,16.3717172 C15.6757505,16.4241577 15.5020414,16.4900473 15.3479975,16.5707424 C13.5889807,17.4972664 11.9668291,20.4427492 12.4776718,22.4393304 C11.9897718,20.4459137 13.5887547,17.5261991 15.3312707,16.5974147" id="Fill-77" fill="#65D0D9"></path>
                <path d="M26.7670269,21.1482094 C26.5302536,21.1567988 26.248386,20.8652116 26.1778625,21.0108921 C26.1769584,21.0124744 26.1792188,21.0184644 26.1831744,21.0269407 C26.2660168,20.9152787 26.532966,21.1841492 26.7617151,21.176916 C28.0257117,21.1239104 28.8656636,21.387017 28.8786607,19.8975489 C28.8595606,21.3463304 28.0202868,21.0895529 26.7670269,21.1482094" id="Fill-78" fill="#65D0D9"></path>
                <path d="M15.6329166,14.1099951 C15.3842763,14.3264251 15.1437734,14.5464717 14.9535636,14.7567988 C15.1459207,14.5460196 15.3863107,14.32586 15.6329166,14.1099951" id="Fill-79" fill="#65D0D9"></path>
                <path d="M14.9230487,14.912538 C14.9320901,14.9021403 14.9413576,14.8912905 14.9506251,14.8808928 C14.9415837,14.8912905 14.9316381,14.9021403 14.9230487,14.912538" id="Fill-80" fill="#65D0D9"></path>
                <path d="M12.6275341,22.7964682 C12.6004097,22.7223507 12.5793883,22.6458494 12.5556544,22.5704316 C12.5800664,22.6454159 12.5997316,22.7227842 12.6275341,22.7964682" id="Fill-81" fill="#65D0D9"></path>
                <path d="M21.374585,8.22089426 C21.4496403,8.22451084 21.5248697,8.23038779 21.6006216,8.23649078 C21.5253922,8.23083987 21.4496403,8.2236067 21.374585,8.22089426" id="Fill-82" fill="#65D0D9"></path>
                <path d="M38.6641238,18.7015893 L38.7774811,18.6937911 L38.6641238,18.7015893 L38.7774811,18.6937911 L38.6638977,18.6987639 C38.6636717,18.6940171 38.6632196,18.6893833 38.6629936,18.6847496 C38.647284,18.4544183 38.6306703,18.2243131 38.6062584,17.9963552 C38.6058063,17.9930776 38.6055803,17.9895741 38.6051282,17.9862965 L38.8308257,17.9618846 C38.8565939,18.2005792 38.8739987,18.4418733 38.8904994,18.6832804 L38.6641238,18.7015893" id="Fill-83" fill="#000000"></path>
                <path d="M38.0159638,14.9264392 L38.1252525,14.8961503 L38.0159638,14.9264392 L38.1252525,14.8961503 L38.0151727,14.9236138 C37.9584375,14.7187116 37.8823762,14.4502931 37.7974995,14.1869605 C37.7970474,14.1857173 37.7965953,14.1843611 37.7961433,14.1831179 L38.0120082,14.1132726 C38.0982412,14.3794307 38.1724942,14.6416331 38.2338631,14.8629229 L38.0159638,14.9264392" id="Fill-84" fill="#000000"></path>
                <path d="M38.2487815,15.8533023 C38.1854913,15.5732429 38.1305644,15.339182 38.0682913,15.1070425 L38.2877728,15.0482729 C38.3509501,15.2840291 38.406329,15.5206894 38.4699583,15.8034612 L38.2487815,15.8533023" id="Fill-85" fill="#000000"></path>
                <polyline id="Fill-86" fill="#000000" points="38.208321 25.1211415 38.1831179 25.0207812 38.1536201 25.0125309 38.0668221 25.0115137 38.0668221 24.9230204 38.3602176 24.8489934 38.2873208 25.04994 38.1831179 25.0207812 38.208321 25.1211415"></polyline>
                <path d="M38.4353747,16.7974571 C38.3871159,16.5166066 38.3447341,16.2817546 38.294893,16.0490499 L38.5169739,16.0015823 C38.5674931,16.2381295 38.610214,16.4753549 38.659264,16.7589178 L38.4353747,16.7974571" id="Fill-87" fill="#000000"></path>
                <path d="M38.5743872,17.7488451 C38.5442113,17.500996 38.5134704,17.2534859 38.47414,17.0088013 L38.6984813,16.9728615 C38.7381507,17.2204846 38.7693438,17.4708201 38.7996327,17.7214947 L38.5743872,17.7488451" id="Fill-88" fill="#000000"></path>
                <path d="M37.7422335,14.0279438 C37.7420075,14.0270396 37.7418945,14.0262485 37.7414424,14.0254574 C37.7412164,14.0244402 37.7409903,14.0236491 37.7405382,14.0227449 C37.7405382,14.0227449 37.7405382,14.0226319 37.7405382,14.0225189 C37.6418733,13.7255068 37.5618563,13.4976619 37.4816133,13.2858656 C37.4804832,13.2830402 37.479353,13.2802147 37.4783358,13.2772763 L37.6905842,13.1968072 C37.7719573,13.411542 37.8533305,13.6424384 37.9535777,13.9437451 C37.9548209,13.9479268 37.9564032,13.9521085 37.9577594,13.9562902 L37.7422335,14.0279438" id="Fill-89" fill="#000000"></path>
                <path d="M34.7747122,8.4293565 L34.7747122,8.4293565 C34.7742601,8.42879141 34.773582,8.42800028 34.7731299,8.42743519 C33.9222152,7.31872572 32.9518401,6.30404747 31.8881119,5.41063785 C31.69745,5.37503708 31.5033976,5.35684114 31.3105884,5.35684114 C30.0245532,5.35684114 28.8344706,6.16130536 27.6833792,6.93921028 C27.1866638,7.27487462 26.6728827,7.62217984 26.1548068,7.90325634 L26.0728685,7.94778555 L25.8928304,7.72999929 L26.0125168,7.66377057 C26.5107014,7.38811895 27.0091121,7.04770785 27.4913612,6.71837254 C28.6713852,5.91243908 29.8916437,5.07926821 31.2543053,5.07926821 C31.3310447,5.07926821 31.4077841,5.08186763 31.4844105,5.08717949 C28.1196299,2.41497492 23.9205481,0.947997457 19.6145511,0.947997457 L19.5202938,0.948223494 C18.1618139,0.954778555 16.8051423,1.10531892 15.4875751,1.39588896 L15.4654235,1.40074875 L14.8888041,1.29598079 L15.4280144,1.17177368 C16.7973441,0.868658614 18.205439,0.714953733 19.6127428,0.714953733 C24.1396906,0.714953733 28.5434485,2.31416261 32.012545,5.21816769 C33.0974076,6.12660874 34.0873349,7.16050011 34.9546373,8.29113513 L34.7747122,8.4293565" id="Fill-90" fill="#000000"></path>
                <polyline id="Fill-91" fill="#000000" points="38.733743 22.9758847 38.5068023 22.9383626 38.5197994 22.774034 38.7433496 22.8535989 38.6896659 22.8420711 38.7425585 22.8597019 38.7353253 22.9550894 38.6262626 22.9397189 38.733743 22.9743025 38.7242495 22.9727202 38.733743 22.9758847"></polyline>
                <path d="M38.7065056,19.6441619 L38.7058275,19.6087872 C38.7016458,19.3985731 38.6976902,19.1883591 38.6862753,18.9800664 L38.912877,18.9676344 C38.912877,18.9676344 38.912877,18.9677474 38.912877,18.9678604 C38.912877,18.9679734 38.912877,18.9680865 38.912877,18.9681995 C38.9240658,19.1703892 38.9283605,19.3745002 38.9322032,19.5786113 L38.9334464,19.6396412 L38.7065056,19.6441619" id="Fill-92" fill="#000000"></path>
                <path d="M36.2680229,29.8681359 L36.0760048,29.7468673 L36.0918274,29.720421 L36.4621883,29.1678745 L36.7915236,28.9561913 L36.6154411,29.3580843 C36.6053825,29.386904 36.5805185,29.4081514 36.559271,29.4223917 L36.2680229,29.8681359" id="Fill-93" fill="#000000"></path>
                <path d="M37.4341457,13.1678745 L37.4341457,13.1678745 C37.4339196,13.1671964 37.4336936,13.1665183 37.4334675,13.1658402 C37.3441831,12.9350569 37.2506039,12.7064209 37.1531822,12.4800452 L37.1443667,12.4470439 L37.0668362,11.7082433 L37.3602317,12.3776506 C37.460931,12.6109204 37.5540581,12.8482588 37.646055,13.0861623 L37.4341457,13.1678745" id="Fill-94" fill="#000000"></path>
                <path d="M38.9106167,21.1136258 L38.684015,21.1014198 L38.6893268,21.0052412 C38.6954298,20.898891 38.7014198,20.7925408 38.7046973,20.6855125 L38.9317511,20.6926326 C38.9281345,20.8015823 38.9221445,20.9097408 38.9159285,21.0178993 L38.9106167,21.1136258" id="Fill-95" fill="#000000"></path>
                <path d="M38.709105,20.4497563 L38.7095571,20.4342728 C38.7128346,20.2893833 38.7162252,20.1443809 38.7157731,19.9983612 L38.7157731,19.9964399 L38.9428269,19.9961009 L38.9140072,19.9964399 L38.9428269,19.9964399 L38.7537473,19.9982482 L38.9428269,19.9975701 L38.9440701,20.0458289 C38.9440701,20.1466412 38.9414707,20.2468885 38.9387582,20.3471357 L38.9363848,20.4402628 L38.7862965,20.4464788 L38.7849403,20.4462527 L38.709105,20.4493042 L38.714869,20.4494172 L38.709105,20.4497563" id="Fill-96" fill="#000000"></path>
                <path d="M38.8642792,21.744946 L38.6382426,21.7248287 L38.6477361,21.6209649 C38.6541781,21.5502154 38.6607332,21.479579 38.6661581,21.4084905 C38.6663841,21.4072473 38.6663841,21.4060041 38.6666102,21.4049869 C38.6666102,21.4048739 38.6666102,21.4048739 38.6666102,21.4048739 C38.6670622,21.3973017 38.6677403,21.3897295 38.6681924,21.3821572 L38.8946811,21.3987709 C38.8886911,21.4807092 38.8812319,21.5621954 38.8735467,21.6436816 L38.8642792,21.744946" id="Fill-97" fill="#000000"></path>
                <path d="M38.8005368,22.3562619 L38.5752914,22.3291375 L38.5872713,22.2323939 C38.5939394,22.1804055 38.6002684,22.1285301 38.6060324,22.0762026 L38.8317299,22.1007276 C38.8257399,22.1546373 38.8190718,22.208208 38.8121777,22.2617786 L38.8005368,22.3562619" id="Fill-98" fill="#000000"></path>
                <path d="M36.5919333,22.3716324 C35.3846719,23.8310376 36.6400791,26.9313555 38.2006357,24.9311577 C38.3771703,24.2571166 38.5158438,23.567705 38.6191425,22.8666525 C38.6230981,22.8412234 38.6271668,22.8157943 38.6311224,22.7902522 C38.634626,22.7653881 38.6368863,22.7402981 38.6405029,22.715321 C38.276471,21.8835064 37.3534506,21.4518895 36.5919333,22.3716324" id="Fill-99" fill="#79A86C"></path>
                <path d="M25.9167903,32.5033835 C25.9442537,33.0701702 26.1881472,33.3906901 26.7564032,33.0892703 C27.2480328,32.8268418 28.0501236,30.6522568 27.9649078,29.6336229 L27.8186621,29.8573992 C27.2604648,30.795112 26.6207812,31.6777848 25.9167903,32.5033835" id="Fill-100" fill="#79A86C"></path>
                <path d="M31.938405,5.30485272 C29.7785124,4.8796779 28.0110193,6.76685739 26.1007841,7.8035742 C27.249389,9.19177792 28.2082362,10.7431801 28.9340397,12.4196934 C29.9048669,14.6628806 30.4576393,17.1279226 30.5011514,19.7175108 C31.227746,20.7718584 32.0297238,21.9542558 32.9420075,22.0862612 C33.8880836,22.2243696 35.2006781,20.71987 35.929081,20.206767 C37.1557816,19.3473759 37.5583528,18.8893127 37.4057781,17.3536201 C37.2533164,15.8155541 37.2311648,14.4272374 37.2542205,12.8882673 C37.2555767,12.7151233 37.2422406,12.5315815 37.2182807,12.3408067 C37.2320689,12.3717737 37.2434838,12.4040969 37.257272,12.4351769 C37.256933,12.4309953 37.2564809,12.4269266 37.2560288,12.4227449 C37.2555767,12.4217278 37.2551247,12.4207106 37.2546726,12.4196934 C36.6242566,10.9636787 35.8183231,9.60271244 34.8647877,8.36018931 C34.0037013,7.23836971 33.0227025,6.21261567 31.938405,5.30485272" id="Fill-101" fill="#79A86C"></path>
                <path d="M26.0675567,7.76311365 C27.9626475,6.71407784 29.7146571,4.83842622 31.8665254,5.25105601 C28.5181324,2.47510066 24.2122484,0.812036448 19.5197288,0.834640107 C18.1266653,0.841421205 16.7698806,0.996934379 15.4632761,1.28501801 C18.5187257,1.96211062 21.3010101,3.36478067 23.6186763,5.30519178 C24.5070001,6.04907819 25.3267218,6.87252949 26.0675567,7.76311365" id="Fill-102" fill="#53AAB2"></path>
                <path d="M36.5919333,22.3716324 C37.3534506,21.4518895 38.276471,21.8835064 38.6405029,22.715321 C38.6576817,22.591566 38.6728262,22.4670198 38.6878576,22.3426997 C38.6980292,22.257823 38.7095571,22.1735113 38.7189376,22.0884086 C38.7312566,21.9712086 38.7405241,21.8528784 38.7512609,21.7348873 C38.7614325,21.6200607 38.7730734,21.5057993 38.7814367,21.3904076 C38.7879918,21.2966024 38.7916084,21.20178 38.7973723,21.1075228 C38.8049446,20.9682842 38.81376,20.8291587 38.8181677,20.6891291 C38.8207671,20.6104683 38.8207671,20.5313555 38.8225754,20.4522427 C38.826192,20.3006852 38.8298086,20.1491276 38.8293949,19.9964399 C38.8289044,19.8775447 38.8225754,19.7602317 38.819976,19.6419015 C38.8155683,19.4186904 38.8119517,19.1951402 38.7996327,18.9738504 C38.7942078,18.8799322 38.7840362,18.7873702 38.7774811,18.6937911 C38.7609804,18.4530621 38.7438017,18.2122201 38.7180335,17.9740906 C38.709105,17.8938476 38.696786,17.8149608 38.6869535,17.7351699 C38.6567776,17.4858515 38.6258106,17.2369852 38.5863672,16.9908314 C38.5748393,16.9195168 38.5598079,16.8493325 38.5472628,16.778131 C38.5038638,16.5258741 38.4591086,16.2740694 38.40599,16.0253161 C38.3917497,15.9592004 38.3744579,15.8943279 38.3593134,15.8283252 C38.3025782,15.5766335 38.2445998,15.3255068 38.1780321,15.0775447 C38.1620965,15.0166278 38.1422053,14.9568411 38.1252525,14.8961503 C38.0557463,14.6450237 37.9838666,14.3949142 37.9040757,14.1481952 C37.887236,14.0957548 37.8673448,14.0444444 37.850053,13.992117 C37.7657413,13.7385039 37.6789433,13.485908 37.58446,13.2370417 C37.5702197,13.1999717 37.5542841,13.1640319 37.5400438,13.1270749 C37.4500812,12.8941442 37.355711,12.6634739 37.257272,12.4351769 C37.2785195,12.620866 37.2914035,12.7995479 37.2888041,12.9681712 C37.2581762,14.5070283 37.2736597,15.8954581 37.4186621,17.4343152 C37.5640037,18.9705729 37.1588331,19.4264887 35.9282899,20.2802289 C35.1971745,20.7896023 33.8774599,22.2876598 32.9322879,22.1450307 C32.0204563,22.0086176 31.2237904,20.8219255 30.5025076,19.7641873 C30.5038638,19.8582185 30.5095147,19.9513456 30.5095147,20.0458289 C30.5095147,20.9826376 30.4382002,21.9024935 30.3082291,22.8035883 C30.2005227,23.5541428 30.0516776,24.2915872 29.8596595,25.0115137 C29.6157661,25.9242495 29.3081303,26.810991 28.9388995,27.6652963 C28.7597655,28.1276542 28.5660521,28.534181 28.1932048,29.3073391 C28.188345,29.3205623 28.1741047,29.3294907 28.15783,29.3387582 L27.9649078,29.6336229 C28.0501236,30.6522568 27.2480328,32.8268418 26.7564032,33.0892703 C26.1881472,33.3906901 25.9442537,33.0701702 25.9167903,32.5033835 C23.2528361,35.6269831 19.6096913,37.8902875 15.4578512,38.8086742 C16.7965529,39.103991 18.1855478,39.2642509 19.6127428,39.2642509 C26.6425938,39.2642509 32.7890937,35.4884227 36.139295,29.8573992 L36.1729745,29.8059758 C36.1778343,29.7980646 36.1826941,29.7902663 36.1871018,29.782242 L36.5235573,29.263375 C36.5297733,29.2594194 36.5350851,29.2559158 36.54051,29.2519602 C36.8955005,28.5162111 37.0848061,28.1161263 37.2595324,27.6652963 C37.6288762,26.8121212 37.9359469,25.9266229 38.1793883,25.0151303 C38.1798404,25.0136611 38.1801794,25.0123049 38.1806315,25.0110617 C38.1878647,24.9846154 38.1936286,24.957717 38.2006357,24.9311577 C36.6400791,26.9313555 35.3846719,23.8310376 36.5919333,22.3716324" id="Fill-103" fill="#53AAB2"></path>
                <path d="M37.2542205,12.8882673 C37.2311648,14.4272374 37.2533164,15.8155541 37.4057781,17.3536201 C37.5583528,18.8893127 37.1557816,19.3473759 35.929081,20.206767 C35.2006781,20.71987 33.8880836,22.2243696 32.9420075,22.0862612 C32.0297238,21.9542558 31.227746,20.7718584 30.5011514,19.7175108 C30.5016034,19.7331073 30.5025076,19.7484778 30.5025076,19.7641873 C31.2237904,20.8219255 32.0204563,22.0086176 32.9322879,22.1450307 C33.8774599,22.2876598 35.1971745,20.7896023 35.9282899,20.2802289 C37.1588331,19.4264887 37.5640037,18.9705729 37.4186621,17.4343152 C37.2736597,15.8954581 37.2581762,14.5070283 37.2888041,12.9681712 C37.2914035,12.7995479 37.2785195,12.620866 37.257272,12.4351769 C37.2434838,12.4040969 37.2320689,12.3717737 37.2182807,12.3408067 C37.2422406,12.5315815 37.2555767,12.7151233 37.2542205,12.8882673" id="Fill-104" fill="#65D0D9"></path>
                <path d="M5.72042099,21.6405171 C7.25667867,22.9526595 9.4221092,24.7233171 9.89090909,26.7865791 C10.2501943,28.3714346 9.01705164,29.4975489 8.36233665,30.832521 C7.54453627,32.5014622 8.11019284,33.8796073 8.49739352,35.6119517 C7.94462104,35.26815 7.45287843,34.9063785 7.01967931,34.5216642 C5.46816416,33.1460055 4.63770573,31.4719785 4.24270679,29.219976 C3.87076358,27.1054037 2.16882108,25.2557463 2.27596242,23.1156318 C2.32942007,22.0736032 2.5995338,21.1384898 2.46707636,20.0787172 C2.31664901,18.8686304 1.84536272,17.7246592 1.62113442,16.5299428 C1.41476301,15.4369429 1.44539097,14.3160274 1.65164936,13.2051706 C3.1549057,9.26377057 5.91662075,5.94431024 9.44765134,3.74045349 C9.49105036,3.93665325 9.51647948,4.17353959 9.60565091,4.34690966 C9.84005086,4.79514021 10.5533093,5.62831108 10.6858798,6.07925408 C11.0017659,7.16705517 10.1940242,6.89196864 9.68962351,7.64094088 C9.07819453,8.55311153 9.67187964,8.6319983 10.0972805,9.51094158 C10.532853,10.4077418 9.99793742,12.2012291 8.963707,12.7516282 C8.31147842,13.1006287 7.90619482,12.4893127 7.24130819,12.4842269 C6.12796496,12.4740552 5.77647807,13.3197711 5.26687858,14.1834569 C4.75230628,15.0573144 4.67082009,15.171915 3.87856184,15.4292576 C3.37144875,15.592343 3.49882037,14.8865438 3.02233524,15.4852017 C2.68859222,15.9056297 3.00199195,18.4304584 3.09884863,18.9781451 C3.33833439,20.3588896 4.71399308,20.7794307 5.72042099,21.6405171" id="Fill-105" fill="#94CD85"></path>
                <path d="M19.6127428,39.6060182 C14.8924207,39.6060182 10.3333757,37.899668 6.77578583,34.8012715 C2.50471145,31.0845518 0.0551529279,25.7063502 0.0551529279,20.0456029 C0.0551529279,17.6604648 0.48518754,15.3183867 1.33338984,13.084354 L1.9700219,13.3259871 C1.15131737,15.4826022 0.736088154,17.7434202 0.736088154,20.0456029 C0.736088154,25.5093593 3.10043088,30.7004026 7.2228862,34.2877163 C10.656608,37.2780674 15.0567493,38.925083 19.6127428,38.925083 C26.2343717,38.925083 32.4550117,35.3836547 35.8471428,29.6827859 L36.1942219,29.1530692 C36.2059758,29.1348732 36.2197641,29.1178074 36.2347955,29.1023239 C36.5956629,28.3531257 36.775249,27.9704457 36.9440983,27.5410892 C37.306548,26.7002331 37.6103412,25.822646 37.8512962,24.9230204 L38.5092887,25.0992159 C38.2596313,26.0307127 37.9448753,26.9396058 37.5733842,27.8004662 C37.3969626,28.2498269 37.2094653,28.6483294 36.8258812,29.4438652 C36.8003391,29.5031998 36.7638341,29.5458077 36.7317369,29.5748534 L36.4242142,30.0434273 C32.9180476,35.9371053 26.4731793,39.6060182 19.6127428,39.6060182" id="Fill-106" fill="#000000"></path>
                <path d="M31.7197146,5.56581197 C28.3336865,2.73040898 24.0339055,1.16894822 19.6127428,1.16894822 C16.0709755,1.16894822 12.6184926,2.15797132 9.62836759,4.02910221 L9.2670481,3.45180476 C12.3656707,1.51286289 15.9431518,0.488012997 19.6127428,0.488012997 C24.1936003,0.488012997 28.6485555,2.10586989 32.1569824,5.04378046 L31.7197146,5.56581197" id="Fill-107" fill="#000000"></path>
                <path d="M38.9658826,22.8533164 L38.2919545,22.7562337 C38.4231688,21.8449672 38.4897365,20.9330225 38.4897365,20.0456029 C38.4897365,17.44573 37.9691743,14.9256481 36.9429681,12.5557675 L37.5679593,12.2852017 C38.6313484,14.7409762 39.1706718,17.3520379 39.1706718,20.0456029 C39.1706718,20.9654588 39.1017306,21.9099527 38.9658826,22.8533164" id="Fill-108" fill="#000000"></path>
                <path d="M1.98087165,13.2976196 C1.77743872,14.4111888 1.76884933,15.4774034 1.95566857,16.4667656 C2.05049092,16.9717313 2.19504132,17.4828 2.33484495,17.977142 C2.52268136,18.6408985 2.71673377,19.3273716 2.80500106,20.0367875 C2.89564173,20.763043 2.80873066,21.4322243 2.72475807,22.0794801 C2.68034188,22.4220386 2.63434343,22.7762379 2.61603447,23.1330367 C2.55896023,24.2723741 3.05940524,25.3365544 3.58900897,26.4632337 C3.99316239,27.3227379 4.41099103,28.2116268 4.57803207,29.1609804 C4.97167479,31.4055238 5.79444798,32.9802077 7.24548986,34.266921 C7.46553648,34.4623296 7.70536131,34.6546867 7.96281698,34.8424101 C7.6250053,33.4755669 7.32347249,32.178908 8.05650915,30.6826588 C8.24434555,30.2998658 8.47546797,29.936512 8.69901815,29.5854771 C9.25913682,28.7052907 9.7884015,27.8740411 9.55886134,26.8619623 C9.13526877,24.9971604 7.14965035,23.3055026 5.69962563,22.0700996 L5.49935721,21.899329 C5.22766123,21.6668503 4.91595677,21.460818 4.61465,21.2616797 C3.80091827,20.7237127 2.95949707,20.1673236 2.76329731,19.0363495 C2.75809847,19.0066257 2.2492901,15.9113937 2.75572508,15.2735184 C2.91056015,15.0791269 3.08675567,14.8993148 3.32759765,14.8993148 C3.52018083,14.8993148 3.64246662,15.0165148 3.70801724,15.079466 C3.71943208,15.0903157 3.73525464,15.1055732 3.74576535,15.1141626 C3.74881684,15.1121283 3.75921452,15.1099809 3.77435897,15.1051211 C4.46026701,14.8823621 4.48919969,14.8330861 4.97348308,14.010652 C5.0267147,13.9205764 5.07791199,13.8309529 5.12854418,13.7423465 C5.57813096,12.9563043 6.04297521,12.1435897 7.22152999,12.1435897 C7.22254715,12.1435897 7.24356855,12.1437028 7.2444727,12.1437028 C7.58273646,12.1463022 7.85217207,12.2662146 8.08984954,12.3718867 C8.36719644,12.4954157 8.56543053,12.5785972 8.803108,12.4514516 C9.68487674,11.9821996 10.1442961,10.3870594 9.79100092,9.65967366 C9.67945186,9.42911634 9.55174119,9.25608533 9.43917497,9.10339761 C9.07842057,8.61459349 8.88120364,8.23541711 9.40673872,7.45129618 C9.63763509,7.10873773 9.92278025,6.93887123 10.131073,6.81466412 C10.4367875,6.63247863 10.4839161,6.6044501 10.3589178,6.17418945 C10.2956276,5.95900261 10.0046055,5.547503 9.77088366,5.21681147 C9.58429046,4.95313979 9.40820795,4.70416049 9.30389207,4.50457018 C9.26863036,4.43596807 9.24150597,4.36420146 9.21958042,4.29153069 C5.94374514,6.45718726 3.38388077,9.63729604 1.98087165,13.2976196 Z M8.49739352,35.9523628 C8.43512044,35.9523628 8.37273434,35.93541 8.31758141,35.9009395 C7.74751713,35.5465141 7.23475313,35.1680158 6.7935297,34.7760684 C5.21963693,33.3807445 4.32939182,31.685018 3.90726849,29.2787455 C3.75616303,28.4191283 3.35788656,27.5721692 2.97283323,26.7531257 C2.43079749,25.600113 1.87045278,24.4081091 1.93600339,23.0985661 C1.95555556,22.714982 2.00336229,22.3473335 2.04947376,21.9917779 C2.13175108,21.3591015 2.20928163,20.7613477 2.12926467,20.1209861 C2.04743943,19.4627675 1.86875751,18.8312213 1.6796779,18.1624921 C1.53569259,17.6535707 1.3868475,17.1275835 1.28648725,16.592781 C1.08237621,15.5115349 1.09254786,14.350837 1.31700219,13.1430105 C1.32073179,13.1227803 1.32638271,13.103002 1.33361588,13.0837889 C2.84433143,9.12261072 5.66199053,5.70188599 9.26738716,3.45157872 C9.36119234,3.39314827 9.47760119,3.38342869 9.57954369,3.42648866 C9.68148619,3.4693226 9.75619128,3.5589461 9.78015116,3.66699159 C9.79179205,3.71988416 9.80230275,3.77537614 9.81292647,3.8319983 C9.83824257,3.96637706 9.86434979,4.10550258 9.90842693,4.19105743 C9.99059123,4.34826588 10.1539027,4.57916225 10.3267076,4.82362082 C10.6169386,5.23399025 10.9168892,5.65837395 11.0125026,5.98330155 C11.2641944,6.84958678 10.9200537,7.13721834 10.4796214,7.39964682 C10.2931412,7.5107438 10.1171717,7.61562478 9.97205623,7.83115067 C9.67414,8.27531257 9.72194674,8.34007205 9.98697464,8.69913117 C10.1107297,8.86685032 10.2647736,9.07559511 10.4036731,9.36266158 C10.8999364,10.3841209 10.3579007,12.3952815 9.12362789,13.0521438 C8.9383909,13.1512609 8.75394504,13.1997457 8.56045772,13.1997457 C8.27519955,13.1997457 8.02972381,13.090457 7.81306774,12.9941654 C7.61901533,12.9078195 7.43558664,12.8262202 7.23870877,12.824638 L7.23859575,12.824638 C6.47425302,12.824638 6.17837112,13.2784064 5.71962987,14.0804973 C5.66752843,14.17159 5.61463587,14.263926 5.56004803,14.3563749 C5.02852299,15.2591651 4.88453768,15.4604507 3.98366886,15.753055 C3.89709684,15.7808575 3.8134633,15.7948718 3.73423748,15.7948718 C3.54888748,15.7948718 3.41586494,15.7202797 3.32691955,15.6506605 C3.31539168,15.6642226 3.30273363,15.6797062 3.28871936,15.697224 C3.10517765,16.0072332 3.27651339,18.0281133 3.43406089,18.9188105 C3.58019354,19.7614749 4.23355231,20.1933178 4.99020979,20.6935368 C5.30869535,20.9042029 5.63825669,21.1219891 5.94182383,21.3818182 L6.14130112,21.5517977 C7.66388359,22.8491347 9.74907113,24.6256693 10.2229568,26.7111959 C10.5152222,28.0002825 9.88390196,28.9921311 9.27337713,29.9512044 C9.05988557,30.2865296 8.83916084,30.6333828 8.66805114,30.9823833 C8.03119305,32.2820937 8.30051565,33.371138 8.64137882,34.7500742 C8.70455605,35.0057216 8.76931553,35.2674719 8.8296673,35.5376987 C8.85961715,35.6716253 8.80627252,35.8102988 8.69449742,35.8896376 C8.63561489,35.9313414 8.56656071,35.9523628 8.49739352,35.9523628 L8.49739352,35.9523628 Z" id="Fill-109" fill="#000000"></path>
                <path d="M17.0171647,15.8768101 C17.2468178,15.8768101 17.4650562,15.8935368 17.6655506,15.9264251 C18.3775659,16.0417038 18.6701702,16.3587201 18.953055,16.6652257 C19.0872077,16.8106802 19.2261072,16.9608815 19.4249064,17.1049799 C19.7757152,17.3575758 20.7428127,17.6265593 21.8429328,17.6264463 C22.7998587,17.6264463 23.524419,17.4030091 23.734068,17.0436109 C23.8352193,16.8706929 23.8360105,16.543844 23.7365544,16.2108921 C23.6321255,15.8608745 23.4353606,15.5628452 23.2471851,15.4690401 C23.153945,15.4231546 23.0407007,15.400664 22.9018012,15.400664 C22.597669,15.400664 22.2227873,15.5110829 21.8604507,15.6177721 C21.4329025,15.7437875 20.985576,15.8743237 20.5892209,15.8507028 C20.1135269,15.8230134 19.6919686,15.6618493 19.2840856,15.5062231 C18.8134774,15.326411 18.3585788,15.1626475 17.9170163,15.2237904 C17.6227167,15.2652681 17.2771067,15.4720915 16.9111535,15.691121 C16.7944056,15.7608533 16.6764145,15.8314897 16.5568411,15.8986226 C16.7089638,15.8842693 16.8631207,15.8768101 17.0171647,15.8768101 Z M17.0171647,16.5577453 C16.6616091,16.5577453 16.2917002,16.605552 15.9760401,16.6925761 C15.8002967,16.7404959 15.6422971,16.8007346 15.505884,16.8722752 C13.9774246,17.6774175 12.3874832,20.3706435 12.781352,22.2491206 C13.0068235,23.3253938 13.8410115,23.9226955 15.2602953,24.024412 C16.9790775,24.1466977 18.7564032,24.2733913 19.3108709,26.7795719 C19.4887617,27.583019 19.4544042,28.4957548 19.4181253,29.4621742 C19.3637635,30.9059829 19.3075934,32.3988416 20.0311365,33.3735113 C20.3830755,33.8466059 20.7390831,34.0864307 21.0888748,34.0864307 C22.5309882,34.0864307 24.0941442,30.3977396 24.8454899,28.6248216 C25.0675708,28.1003037 25.2432012,27.6863177 25.3721551,27.4494314 L25.5493678,27.1266511 C26.3754185,25.6253161 27.2299498,24.0728968 26.6355866,22.4449813 C26.6098185,22.393671 26.3979092,22.0577806 26.2576535,21.8354736 C25.7807163,21.0789292 25.7715618,21.0644628 25.8731652,20.8753832 C25.9384898,20.7419086 26.0772763,20.6557887 26.2383273,20.6557887 C26.3694286,20.6557887 26.4801865,20.7117327 26.5876669,20.7657555 C26.63796,20.7911846 26.7223847,20.8335664 26.754934,20.8366179 C26.9452568,20.8284806 27.1329802,20.8276895 27.3090627,20.8270114 C27.8017094,20.8253161 28.1910574,20.8239599 28.3580985,20.6476513 C28.5001625,20.4977891 28.5593841,20.1585082 28.5337289,19.6396412 C28.5188105,19.3450025 28.4297521,19.0017659 28.3513174,18.6989899 C28.2233807,18.2066822 28.1461892,17.9094441 28.3189941,17.686459 C28.3991241,17.5827082 28.5227661,17.5231476 28.658049,17.5231476 C28.8773045,17.5231476 29.1224412,17.6670198 29.5948577,18.0727555 C29.9968637,18.4179134 30.3950272,19.0017659 30.8163594,19.619976 C31.4796638,20.5930635 32.2316875,21.695896 32.9825811,21.8083492 C33.0090273,21.8123049 33.0355866,21.8140001 33.062372,21.8140001 C33.062372,21.8140001 33.062372,21.8140001 33.062598,21.8140001 C33.6080243,21.8140001 34.4211909,21.1066186 35.014763,20.590012 C35.2767394,20.3620541 35.5240235,20.1467543 35.7335594,20.0008476 C36.9208166,19.1773963 37.207883,18.8209366 37.0797203,17.4662994 C36.9500883,16.0910927 36.9122272,14.7859575 36.94828,12.9613901 C36.9505404,12.8284806 36.942064,12.6799746 36.9231899,12.509882 C35.7724377,9.87067882 33.9988416,7.49232182 31.7883167,5.62356431 C31.6302041,5.59734407 31.4699442,5.58389489 31.3105884,5.58389489 C30.0934944,5.58389489 28.9845589,6.33365826 27.8101858,7.12749876 C26.6581903,7.90619482 25.4667514,8.71145017 24.1220598,8.78095642 C23.6026277,8.80661157 23.0685032,8.72388218 22.5500883,8.64363919 C22.1134986,8.57616727 21.6619905,8.50632196 21.2420146,8.50632196 C20.7428127,8.50632196 20.3509783,8.60306562 20.009098,8.81090627 C19.4363213,9.1583245 19.2774175,9.68860634 19.0935368,10.3026347 C18.9570107,10.7583245 18.8158508,11.2294978 18.4932966,11.6554637 C18.2626263,11.9610652 18.0391891,12.2295967 17.64306,12.4153987 C17.5480116,12.4598149 17.4381578,12.4580066 17.3449177,12.411104 C17.2514516,12.3639754 17.1849968,12.2763862 17.1645405,12.1737656 C17.0589814,11.644501 16.6343717,11.2140143 16.2181253,11.2140143 C15.9988698,11.2140143 15.796228,11.3331356 15.6153987,11.5681006 C15.2873066,11.9944056 15.32675,12.1667585 15.3466412,12.2094794 C15.4858798,12.5081868 16.5232747,12.5524899 16.913979,12.5691036 C17.0345695,12.5741894 17.1472487,12.6430176 17.2040969,12.7495938 C17.2607191,12.8562831 17.2606061,12.9850109 17.1973158,13.0878576 C17.0247369,13.368482 16.6348238,13.7008688 16.1834287,14.0856961 C15.8182666,14.3969485 14.8480045,15.2240164 14.9027054,15.4698312 C14.9029314,15.4698312 14.9406795,15.5288267 15.1366532,15.5870312 C15.2856114,15.6309953 15.4465494,15.6242142 15.648061,15.5660097 C15.9364837,15.4806809 16.2541781,15.2905842 16.5614749,15.1068164 C16.969584,14.8625839 17.3913682,14.610101 17.8228721,14.5494102 C17.921537,14.535735 18.0218973,14.5288409 18.1220315,14.5288409 C18.6335523,14.5288409 19.0876598,14.7023239 19.5270749,14.8700431 C19.9029738,15.0136893 20.2583033,15.1491983 20.6286643,15.1707848 C20.9165219,15.1871724 21.2794236,15.0791269 21.6680935,14.9646394 C22.0767677,14.8441619 22.4994561,14.7197288 22.9018012,14.7197288 C23.147616,14.7197288 23.3595253,14.7652751 23.5493961,14.8589673 C23.9132019,15.0400226 24.2269407,15.4723176 24.389122,16.0160486 C24.5470085,16.5444091 24.5225966,17.044063 24.3221021,17.3869605 C23.8548845,18.1876951 22.5683973,18.3073815 21.8429328,18.3073815 C20.7164795,18.3074945 19.558155,18.0399802 19.0264039,17.6570742 C18.7717737,17.4727414 18.6022462,17.2890867 18.452723,17.1271315 C18.2021615,16.8556615 18.0365897,16.6763015 17.5560359,16.5984319 C17.3911422,16.5714205 17.2100869,16.5577453 17.0171647,16.5577453 Z M21.0888748,34.767479 C20.5120294,34.767479 19.972367,34.4350922 19.4845801,33.7796991 C18.6181818,32.6124461 18.6788726,30.9980928 18.7376422,29.4368581 C18.7723388,28.5153069 18.8051141,27.64484 18.6462104,26.9267218 C18.2220527,25.0099315 17.1210285,24.8394999 15.2118104,24.7035389 C13.5018436,24.5811401 12.4020626,23.759045 12.1147701,22.3889242 C11.6468743,20.1563608 13.3925549,17.2380024 15.159935,16.2851452 C15.086021,16.2757646 15.0135763,16.2607332 14.9430529,16.2398248 C14.5370912,16.1193473 14.2993007,15.9077771 14.2364625,15.610991 C14.1001625,14.9667867 14.8975065,14.2870947 15.7416402,13.5675072 C15.8864166,13.4440913 16.0331144,13.319206 16.1651197,13.201328 C15.5629583,13.1346472 14.95006,12.9706576 14.7294483,12.496998 C14.5572084,12.1273151 14.6737303,11.6751289 15.0758494,11.1528714 C15.4697182,10.6406725 15.9143321,10.533079 16.2181253,10.533079 C16.8225471,10.533079 17.3912552,10.9553154 17.6783217,11.5702479 C17.7700925,11.4793812 17.8542912,11.3717878 17.9501307,11.2446422 C18.1988839,10.9162111 18.316536,10.5232465 18.4411952,10.1072261 C18.6371689,9.45318924 18.8591368,8.71190224 19.6555767,8.22874903 C20.1024511,7.9573921 20.6213181,7.82538673 21.2420146,7.82538673 C21.714544,7.82538673 22.1920463,7.89918768 22.6540651,7.97072826 C23.1618563,8.04927598 23.6373243,8.12251183 24.0877022,8.10092534 C25.2425231,8.04125168 26.304443,7.32324645 27.4289751,6.56319842 C28.6363495,5.74698029 29.8850886,4.90284665 31.3105884,4.90284665 C31.5422759,4.90284665 31.7756587,4.92578936 32.0041817,4.97077064 C32.0604648,4.98184644 32.1130183,5.00682348 32.1569824,5.04378046 C34.4929575,6.99967507 36.3642015,9.50359539 37.5679593,12.2853147 C37.5809564,12.3152645 37.5895458,12.3471357 37.5935014,12.379685 C37.6202868,12.6012008 37.6319277,12.7953662 37.6292152,12.9733701 C37.5935014,14.7718302 37.6305714,16.0545878 37.757491,17.402331 C37.9203504,19.1213393 37.3841916,19.6846224 36.1221163,20.5599491 C35.9434343,20.6844953 35.7093735,20.8881543 35.4618634,21.1036802 C34.7493961,21.7235855 33.8629936,22.4949354 33.062598,22.4949354 C33.062372,22.4949354 33.062372,22.4949354 33.062372,22.4949354 C33.0012291,22.4949354 32.9406513,22.4905277 32.8815427,22.4817122 C31.8366886,22.3252949 30.9956064,21.0919263 30.2537543,20.0035601 C29.8584163,19.4236632 29.4847778,18.8759765 29.1510348,18.5893622 C29.0920393,18.5385039 29.0391467,18.4942007 28.991679,18.4557745 C28.9980081,18.4806386 29.0042241,18.5048245 29.010327,18.5279932 C29.0927174,18.8458007 29.195338,19.2413647 29.21376,19.6056227 C29.2506039,20.3481529 29.1389419,20.8137882 28.8522145,21.1162252 C28.484679,21.5038779 27.9409479,21.5056862 27.311436,21.5079466 C27.1686939,21.5085117 27.0180405,21.5089638 26.859928,21.5139366 C27.1562619,21.9840927 27.2427209,22.1261567 27.2733489,22.2063997 C27.9757576,24.129971 27.0035742,25.896334 26.1457653,27.4550823 L25.9701349,27.7751501 C25.8568906,27.9826517 25.6786607,28.4034188 25.4724023,28.8904146 C24.5410186,31.0886205 22.9820442,34.767479 21.0888748,34.767479 L21.0888748,34.767479 Z" id="Fill-110" fill="#000000"></path>
                <path d="M37.5128064,22.2770361 C37.2865438,22.2770361 37.0545172,22.4117539 36.8414777,22.6664971 C36.3274705,23.2818818 36.3441972,24.2431024 36.6212051,24.8350922 C36.6898072,24.9819029 36.880356,25.3232182 37.1692308,25.3232182 C37.3725507,25.3232182 37.6196087,25.1573073 37.8694921,24.8543053 C38.0399237,24.2035459 38.1769019,23.5322173 38.2773752,22.8560288 C38.0986932,22.5014904 37.8056368,22.2770361 37.5128064,22.2770361 Z M37.1692308,26.0041534 L37.1692308,26.0041534 C36.6904853,26.0041534 36.2659886,25.6831815 36.0042382,25.1236279 C35.6293565,24.3217631 35.6170375,23.0703115 36.3189941,22.2297944 C36.757053,21.7060677 37.2099174,21.5962139 37.5128064,21.5962139 C38.1003885,21.5962139 38.6611853,22.0178851 38.9416967,22.6702267 C38.9664477,22.7278661 38.9749241,22.7909303 38.9658826,22.8530903 C38.857046,23.6132514 38.7033411,24.3687787 38.5092887,25.0986508 C38.4974218,25.1431801 38.4766264,25.1849968 38.4480328,25.2213887 C38.0403758,25.7408208 37.6101151,26.0041534 37.1692308,26.0041534 L37.1692308,26.0041534 Z" id="Fill-111" fill="#000000"></path>
                <path d="M5.18833086,16.9366956 C5.13769866,16.9366956 5.08751854,16.9546655 5.034739,16.9918486 C4.7944621,17.1605849 4.72902451,17.8311224 4.89990817,18.3716889 C5.0069365,18.7101787 5.18166278,18.9290951 5.34497422,18.9290951 C5.34497422,18.9290951 5.34497422,18.9290951 5.34508724,18.9290951 C5.45900968,18.9290951 5.61101928,18.8401497 5.77286148,18.6785336 C6.0144946,18.4369005 5.96917426,17.958042 5.81693862,17.5905065 C5.66266864,17.2177721 5.39232888,16.9366956 5.18833086,16.9366956 Z M5.34508724,19.6100304 C5.34497422,19.6100304 5.34497422,19.6100304 5.3448612,19.6100304 C4.86419439,19.6099174 4.45518118,19.2237338 4.25073109,18.5769301 C4.01655718,17.8366603 4.07453557,16.8343011 4.64313061,16.4348944 C4.81209296,16.3159992 4.99552165,16.2557604 5.18833086,16.2557604 C5.68210779,16.2557604 6.1757717,16.6774317 6.44611146,17.3299993 C6.67802501,17.890118 6.74945257,18.6650844 6.25409338,19.1602176 C5.95504697,19.4588119 5.64921947,19.6100304 5.34508724,19.6100304 L5.34508724,19.6100304 Z" id="Fill-112" fill="#000000"></path>
                <path d="M27.5328389,29.485908 C26.9598361,29.5780179 26.1380801,31.462485 26.1956064,32.5319771 C26.2066822,32.7368793 26.2561842,32.8914883 26.310433,32.8914883 C26.334845,32.8914883 26.4055944,32.8841421 26.5350004,32.8164442 C26.755386,32.6871512 27.3620682,31.4331002 27.5417673,30.2847213 C27.6277742,29.7353394 27.558607,29.5368793 27.5328389,29.485908 Z M26.310433,33.5724235 C26.310433,33.5724235 26.310433,33.5724235 26.310207,33.5724235 C26.1367239,33.5724235 25.5658685,33.4999788 25.5158014,32.568595 C25.4530762,31.4062019 26.3130324,28.9315533 27.4588119,28.8074592 C27.8410398,28.7662075 28.1198559,28.9928092 28.2189729,29.39312 C28.4623013,30.3770573 27.5551035,33.0484707 26.8516776,33.4190577 C26.6549128,33.5223564 26.4778131,33.5724235 26.310433,33.5724235 L26.310433,33.5724235 Z" id="Fill-113" fill="#000000"></path>
                <path d="M15.9151233,4.4886346 C14.789009,4.4886346 13.1154341,5.10198488 12.7677898,5.81784276 C12.6589532,6.04320124 12.5267218,6.2795225 12.3866921,6.529745 C11.9545101,7.30233807 11.4645758,8.1778908 11.688013,8.74705093 C11.86127,9.18985663 12.0609734,9.18985663 12.1362436,9.18985663 C12.522088,9.18996963 13.0761037,8.72783782 13.442622,8.42212333 C13.5071555,8.36843964 13.5675072,8.31803348 13.6232253,8.2730522 C14.0271526,7.94733347 14.5044289,7.71801935 14.9659956,7.49616444 C15.5926821,7.19497069 16.1846719,6.91050364 16.5502861,6.42068235 C16.9189518,5.92645334 17.0665536,5.3183019 16.9090061,4.942064 C16.8085329,4.70212616 16.5814791,4.55621954 16.2340609,4.5084128 C16.1385604,4.49530268 16.03108,4.4886346 15.9151233,4.4886346 Z M12.1362436,9.87079183 C12.1361305,9.87079183 12.1361305,9.87079183 12.1361305,9.87079183 C11.7987709,9.87079183 11.3372042,9.71889525 11.0539804,8.99557816 C10.7128911,8.12680653 11.286459,7.10173059 11.7925549,6.1973582 C11.9273857,5.95629017 12.0546443,5.72867133 12.1550046,5.52105672 C12.6705941,4.45924984 14.6924913,3.80769937 15.9151233,3.80769937 C16.062047,3.80769937 16.2004945,3.8165148 16.3268489,3.8338066 C16.9128488,3.91438864 17.3425443,4.21456523 17.5371618,4.67907042 C17.7908879,5.28507452 17.6177439,6.12864307 17.0959384,6.82800028 C16.630303,7.45174825 15.9342234,7.78639542 15.2608604,8.10985378 C14.8146641,8.32447552 14.3932189,8.52689129 14.0508865,8.80288197 C13.9981069,8.84560288 13.9402416,8.89374868 13.8787596,8.94505898 C13.4102988,9.33576323 12.7686939,9.87079183 12.1362436,9.87079183 L12.1362436,9.87079183 Z" id="Fill-114" fill="#000000"></path>
            </g>
        </g>
    </g>
</svg>